<?xml version="1.0" encoding="utf-8"?>
<!-- Generator: Adobe Illustrator 19.2.1, SVG Export Plug-In . SVG Version: 6.00 Build 0)  -->
<svg version="1.1" id="Layer_1" xmlns="http://www.w3.org/2000/svg" xmlns:xlink="http://www.w3.org/1999/xlink" x="0px" y="0px"
	 viewBox="0 0 4.25 4" style="enable-background:new 0 0 4.25 4;" xml:space="preserve">
<g>
	<path d="M2.12,4C2.1,4,2.07,3.99,2.05,3.98C1.98,3.92,0.3,2.68,0.04,1.62c-0.1-0.43-0.01-0.88,0.24-1.2C0.5,0.15,0.81,0,1.16,0
		c0.5,0,0.8,0.26,0.96,0.51C2.28,0.26,2.59,0,3.08,0c0.35,0,0.66,0.15,0.88,0.43c0.25,0.32,0.34,0.77,0.24,1.2
		C3.95,2.68,2.27,3.92,2.2,3.98C2.18,3.99,2.15,4,2.12,4z M1.16,0.25c-0.35,0-0.57,0.18-0.68,0.33C0.28,0.84,0.2,1.22,0.29,1.57
		c0.21,0.85,1.51,1.9,1.84,2.15c0.33-0.25,1.63-1.31,1.84-2.15c0.08-0.35,0.01-0.73-0.19-0.98C3.65,0.43,3.43,0.25,3.08,0.25
		c-0.67,0-0.84,0.57-0.84,0.58C2.23,0.88,2.18,0.92,2.12,0.92h0c-0.06,0-0.1-0.04-0.12-0.09C2,0.81,1.83,0.25,1.16,0.25z"/>
</g>
</svg>
