<svg width="348" height="191" viewBox="0 0 348 191" fill="none" xmlns="http://www.w3.org/2000/svg">
<g id="No returns">
<path id="Shape" d="M262 90H289.928L303 73H275.019L262 90Z" fill="#F4F6F8"/>
<rect id="Rectangle-path" x="219" y="90" width="71" height="62" fill="#F9F9FC"/>
<path id="Rectangle-path_2" d="M219 90H262V152H219V90Z" fill="#F4F6F8"/>
<path id="Shape_2" d="M219.08 90L206 73H248.98L262 90H219.08Z" fill="#F4F4F4"/>
<path id="Shape_3" fill-rule="evenodd" clip-rule="evenodd" d="M279.402 103.396C278.724 103.137 278.005 103.002 277.28 103C276.845 103.002 276.412 103.047 275.986 103.134L274.261 106.106C274.972 105.721 275.77 105.527 276.579 105.542C277.071 105.542 277.561 105.61 278.034 105.744L279.402 103.396ZM269 111.379C269.088 115.653 272.623 119.056 276.916 118.999C281.352 119.025 284.97 115.467 285 111.05C284.978 108.596 283.847 106.283 281.921 104.751L280.574 107.059C281.758 108.064 282.443 109.534 282.447 111.084C282.323 114.039 279.87 116.365 276.9 116.343C273.93 116.321 271.512 113.96 271.432 111.003C271.432 110.643 271.466 110.284 271.533 109.93L269 111.379Z" fill="white"/>
<path id="Shape_4" d="M100 104H121.116L131 91H109.85L100 104Z" fill="#F4F6F8"/>
<path id="Rectangle-path_3" d="M67 104H120V151H67V104Z" fill="#F9F9FC"/>
<path id="Rectangle-path_4" d="M67 104H99V151H67V104Z" fill="#F4F6F8"/>
<path id="Shape_5" d="M66.8126 104L57 91H89.234L99 104H66.8126Z" fill="#F4F4F4"/>
<path id="Shape_6" fill-rule="evenodd" clip-rule="evenodd" d="M112.83 114.299C112.32 114.104 111.778 114.003 111.232 114C110.905 114.001 110.578 114.035 110.258 114.1L108.955 116.323C109.491 116.035 110.092 115.891 110.701 115.903C111.071 115.902 111.439 115.951 111.796 116.05L112.83 114.299ZM105 120.289C105.062 123.492 107.724 126.044 110.956 125.999C114.281 125.999 116.982 123.338 117 120.043C116.983 118.205 116.132 116.472 114.683 115.324L113.676 117.055C114.566 117.809 115.08 118.909 115.086 120.07C115.069 122.339 113.199 124.166 110.909 124.149C108.619 124.133 106.776 122.279 106.793 120.01C106.792 119.74 106.817 119.47 106.867 119.204L105 120.289Z" fill="white"/>
<path id="Rectangle-path_5" d="M190 95H217V149H190V95Z" fill="#F4F6F8"/>
<path id="Rectangle-path_6" d="M136 84H195V95H136V84Z" fill="#E0E5EC"/>
<path id="Rectangle-path_7" d="M195 84H216V95H195V84Z" fill="#E8EAF1"/>
<path id="Rectangle-path_8" d="M136 95H195V149H136V95Z" fill="#E8EAF1"/>
<path id="Shape_7" d="M163 84H179V127L171 119.838L163 127V84Z" fill="#F4F6F8"/>
<path id="Shape_8" d="M239.764 5H283.739C289.115 5 294 9.36301 294 14.753V34.8027C294 40.1726 289.128 44.5558 283.739 44.5558H252.505L240.665 54V44.6027H239.764C237.166 44.6028 234.676 43.5688 232.843 41.7296C231.011 39.8903 229.988 37.3975 230 34.8027V14.753C230 12.1664 231.029 9.68564 232.86 7.85659C234.691 6.02755 237.175 5 239.764 5Z" fill="#FDD760" stroke="#FFC729" stroke-width="3.2"/>
<g id="Group" style="mix-blend-mode:screen" opacity="0.28">
<path id="Shape_9" d="M239.459 34.3168V15.5C239.459 10.4446 242.827 6.33928 246.557 6.33928H239.418C235.688 6.33928 232.32 10.4107 232.32 15.5V34.3168C232.32 39.3721 235.688 43.4775 239.418 43.4775C239.418 43.4775 239.459 39.3789 239.459 34.3168Z" fill="#FCD66D"/>
</g>
<path id="0" d="M262.468 8.67366C265.811 8.67366 268.227 10.0503 269.718 12.8037C270.872 14.9319 271.45 17.8475 271.45 21.5508C271.45 25.0616 270.927 27.9653 269.88 30.2617C268.366 33.5562 265.889 35.2034 262.45 35.2034C259.348 35.2034 257.039 33.8567 255.525 31.1635C254.262 28.9151 253.631 25.8972 253.631 22.1098C253.631 19.1761 254.01 16.6572 254.767 14.5531C256.186 10.6335 258.753 8.67366 262.468 8.67366ZM262.432 32.2456C264.115 32.2456 265.456 31.5002 266.454 30.0092C267.452 28.5183 267.951 25.7409 267.951 21.677C267.951 18.7433 267.59 16.3326 266.869 14.4449C266.147 12.5452 264.746 11.5954 262.666 11.5954C260.755 11.5954 259.354 12.4971 258.464 14.3006C257.587 16.0921 257.148 18.7373 257.148 22.2361C257.148 24.8692 257.43 26.9854 257.995 28.5845C258.861 31.0252 260.34 32.2456 262.432 32.2456Z" fill="#FFC729"/>
<g id="Shape_10">
<path d="M2 150H115H2Z" fill="#8E99A4"/>
<path d="M2 150H115" stroke="#C6CBDB" stroke-width="3.2" stroke-linecap="round" stroke-linejoin="round"/>
</g>
<g id="Shape_11">
<path d="M115 150H327H115Z" fill="#8E99A4"/>
<path d="M115 150H327" stroke="#C6CBDB" stroke-width="3.2" stroke-linecap="round" stroke-linejoin="round"/>
</g>
<path id="Shape_12" d="M252.041 162.001C255.589 162.061 262 164.66 262 164.66V166.155C261.966 168.362 257.455 170.083 251.932 169.997C246.41 169.91 241.96 168.043 242 165.836V164.341C242 164.341 248.588 161.948 252.041 162.001Z" fill="#EBF1F7"/>
<path id="Oval" d="M261.998 164.164C262.035 161.955 257.588 160.091 252.065 160.001C246.543 159.91 242.037 161.627 242.001 163.836C241.965 166.045 246.412 167.909 251.934 167.999C257.456 168.09 261.962 166.373 261.998 164.164Z" fill="#F4F6F8"/>
<path id="Shape_13" d="M85.8857 162.005C83.4079 162.129 79 164.228 79 164.228L79.0534 165.343C79.1336 166.995 82.3193 168.172 86.1662 167.979C90.0131 167.787 93.0786 166.293 92.9985 164.641L92.945 163.526C92.945 163.526 88.29 161.895 85.8857 162.005Z" fill="#EBF1F7"/>
<path id="Oval_2" d="M86.1451 166.996C90.0065 166.808 93.0714 165.314 92.9908 163.659C92.9101 162.004 89.7144 160.815 85.853 161.004C81.9916 161.192 78.9267 162.686 79.0074 164.341C79.088 165.996 82.2837 167.185 86.1451 166.996Z" fill="#F4F6F8"/>
<path id="Shape_14" d="M147.309 182.01C143.251 182.195 136 185.346 136 185.346L136.088 187.014C136.216 189.491 141.452 191.261 147.776 190.968C154.1 190.675 159.126 188.421 158.998 185.964L158.91 184.296C158.91 184.296 151.266 181.825 147.309 182.01Z" fill="#EBF1F7"/>
<path id="Oval_3" d="M147.719 188.995C154.063 188.686 159.108 186.423 158.987 183.94C158.866 181.458 153.625 179.696 147.281 180.005C140.938 180.315 135.893 182.577 136.014 185.06C136.135 187.542 141.376 189.304 147.719 188.995Z" fill="#F4F6F8"/>
<g id="Shape_15">
<path d="M335 150H346H335Z" fill="#8E99A4"/>
<path d="M335 150H346" stroke="#C6CBDB" stroke-width="3.2" stroke-linecap="round" stroke-linejoin="round"/>
</g>
<path id="Rectangle-path_9" d="M121 42.64C121 39.5251 123.525 37 126.64 37H215.36C218.475 37 221 39.5251 221 42.64V164.36C221 167.475 218.475 170 215.36 170H126.64C123.525 170 121 167.475 121 164.36V42.64Z" fill="#E8EAF1" stroke="#C5D0D9" stroke-width="2.4" stroke-linecap="round" stroke-linejoin="round"/>
<path id="Shape_16" d="M179.334 28.4678C179.334 23.7912 175.603 20 171 20C166.397 20 162.666 23.7912 162.666 28.4678H141V42H201V28.4678H179.334Z" fill="#E8EAF1" stroke="#C5D0D9" stroke-width="2.4" stroke-linecap="round" stroke-linejoin="round"/>
<path id="Rectangle-path_10" opacity="0.41" d="M134 58.08C134 54.7221 136.722 52 140.08 52H203.92C207.278 52 210 54.7221 210 58.08V150.92C210 154.278 207.278 157 203.92 157H140.08C136.722 157 134 154.278 134 150.92V58.08Z" fill="#F4F5F8"/>
<g id="Group_2" style="mix-blend-mode:multiply">
<path id="Oval_4" fill-rule="evenodd" clip-rule="evenodd" d="M169.287 130.69C183.761 130.69 195.495 118.957 195.495 104.483C195.495 90.0093 183.761 78.2759 169.287 78.2759C154.813 78.2759 143.08 90.0093 143.08 104.483C143.08 118.957 154.813 130.69 169.287 130.69Z" stroke="#EBF1F7" stroke-width="2.4" stroke-linecap="round"/>
<g id="Shape_17" style="mix-blend-mode:screen" opacity="0.22">
<path fill-rule="evenodd" clip-rule="evenodd" d="M152.718 104.483C152.72 91.8692 161.708 81.0462 174.106 78.7269C163.755 76.7814 153.245 81.222 147.424 90.0001C141.603 98.7783 141.603 110.188 147.424 118.966C153.245 127.744 163.755 132.185 174.106 130.239C161.708 127.92 152.72 117.097 152.718 104.483Z" fill="#E1E6F0"/>
</g>
<path id="Shape_18" d="M160.033 99.4356H176.071C179.145 99.4356 181.637 101.927 181.637 105.001V105.533C181.637 109.113 178.735 112.014 175.156 112.014H160.673" stroke="#EBF1F7" stroke-width="2.4" stroke-linecap="round"/>
<path id="Shape_19" d="M162.362 94.6168L157.543 99.4356L162.362 104.254" stroke="#EBF1F7" stroke-width="2.4" stroke-linecap="round"/>
<path id="Shape_20" d="M187.762 85.8945C196.635 94.7132 198.038 108.574 191.112 118.992C184.186 129.41 170.862 133.481 159.297 128.711C147.731 123.942 141.149 111.663 143.58 99.3907C146.011 87.1188 156.777 78.2762 169.287 78.2759C176.212 78.267 182.857 81.0072 187.762 85.8945" stroke="#EBF1F7" stroke-width="2.4" stroke-linecap="round"/>
</g>
</g>
</svg>
