<svg width="24" height="24" viewBox="0 0 24 24" fill="none" xmlns="http://www.w3.org/2000/svg">
<path d="M13.3513 13.6726C13.1346 13.9052 12.8733 14.0917 12.5829 14.221C12.2926 14.3504 11.9792 14.42 11.6614 14.4256C11.3436 14.4312 11.0279 14.3727 10.7332 14.2537C10.4384 14.1346 10.1707 13.9574 9.94595 13.7327C9.72119 13.5079 9.54401 13.2402 9.42496 12.9455C9.30592 12.6508 9.24746 12.3351 9.25307 12.0173C9.25867 11.6995 9.32824 11.3861 9.4576 11.0957C9.58697 10.8054 9.77349 10.5441 10.006 10.3274M16.3651 16.6865C15.0165 17.7145 13.3742 18.284 11.6786 18.3117C6.15586 18.3117 2.99998 12 2.99998 12C3.98138 10.1711 5.34254 8.57319 6.99217 7.31351L16.3651 16.6865ZM10.0218 5.87759C10.5649 5.75047 11.1209 5.68693 11.6786 5.68824C17.2014 5.68824 20.3573 12 20.3573 12C19.8784 12.896 19.3072 13.7395 18.6531 14.5168L10.0218 5.87759Z" stroke="#B4BCD0" stroke-width="1.4" stroke-linecap="round" stroke-linejoin="round"/>
<path d="M3 3.32133L20.3573 20.6787" stroke="#B4BCD0" stroke-width="1.4" stroke-linecap="round" stroke-linejoin="round"/>
</svg>
