<?xml version="1.0" standalone="no"?>
<!DOCTYPE svg PUBLIC "-//W3C//DTD SVG 1.1//EN" "http://www.w3.org/Graphics/SVG/1.1/DTD/svg11.dtd" >
<svg xmlns="http://www.w3.org/2000/svg">
<metadata>Generated by IcoMoon</metadata>
<defs>
<font id="icomoon" horiz-adv-x="1024">
<font-face units-per-em="1024" ascent="960" descent="-64" />
<missing-glyph horiz-adv-x="1024" />
<glyph unicode="&#x20;" horiz-adv-x="512" d="" />
<glyph unicode="&#xe900;" glyph-name="aeroplane-o" d="M1009.924 945.924c-8.64 8.665-20.589 14.026-33.791 14.026-6.032 0-11.803-1.119-17.116-3.161l0.327 0.11-928.567-353.103c-18.154-7.026-30.794-24.344-30.794-44.615s12.64-37.59 30.469-44.504l0.325-0.111 398.673-149.592 149.592-397.957c6.957-18.246 24.294-30.979 44.611-31.016h0.005c20.172 0.101 37.375 12.704 44.265 30.452l0.111 0.325 352.865 928.567c1.932 4.986 3.051 10.757 3.051 16.789 0 13.201-5.361 25.151-14.025 33.79l-0.001 0.001zM182.755 559.418l602.185 229.040-329.007-329.484-1.67-2.147zM623.418 118.755l-102.114 271.508 2.147 1.67 329.007 329.484z" />
<glyph unicode="&#xe901;" glyph-name="aeroplane" d="M1009.924 945.924c-8.64 8.665-20.589 14.026-33.791 14.026-6.032 0-11.803-1.119-17.116-3.161l0.327 0.11-928.567-353.103c-18.154-7.026-30.794-24.344-30.794-44.615s12.64-37.59 30.469-44.504l0.325-0.111 398.673-149.592 149.592-397.957c6.957-18.246 24.294-30.979 44.611-31.016h0.005c20.172 0.101 37.375 12.704 44.265 30.452l0.111 0.325 352.865 928.567c1.932 4.986 3.051 10.757 3.051 16.789 0 13.201-5.361 25.151-14.025 33.79l-0.001 0.001z" />
<glyph unicode="&#xe902;" glyph-name="angle-down" d="M506.964 191.212c-0.012 0-0.028 0-0.043 0-12.948 0-24.692 5.172-33.271 13.567l0.009-0.009-428.177 418.426c-8.827 8.649-14.3 20.692-14.3 34.016 0 26.293 21.312 47.605 47.605 47.605 12.969 0 24.724-5.187 33.312-13.597l394.867-385.828 395.114 385.836c8.709 9.326 21.077 15.142 34.806 15.142 26.277 0 47.576-21.302 47.576-47.576 0-14.141-6.17-26.841-15.966-35.558l-0.048-0.044-428.177-417.95c-8.52-8.569-20.273-13.911-33.28-14.034h-0.023z" />
<glyph unicode="&#xe903;" glyph-name="angle-up" d="M930.339 192.193c-0.011 0-0.027 0-0.043 0-12.899 0-24.598 5.156-33.14 13.515l0.009-0.009-393.365 384.358-393.365-383.886c-8.194-6.956-18.896-11.188-30.583-11.188-26.174 0-47.391 21.221-47.391 47.391 0 11.923 4.405 22.819 11.675 31.15l-0.048-0.056 426.776 416.823c8.528 8.309 20.195 13.433 33.058 13.433s24.528-5.124 33.068-13.441l-0.011 0.011 426.54-416.823c8.801-8.613 14.26-20.614 14.26-33.886 0-26.174-21.221-47.391-47.391-47.391-0.013 0-0.027 0-0.043 0h0.003z" />
<glyph unicode="&#xe904;" glyph-name="angle-left" horiz-adv-x="553" d="M469.834 8.040c-0.013 0-0.028 0-0.035 0-12.308 0-23.432 5.048-31.417 13.197l-387.047 396.071c-7.713 7.915-12.473 18.751-12.473 30.696s4.76 22.775 12.484 30.701l-0.011-0.011 387.038 396.285c8.127 9.57 20.163 15.609 33.62 15.609 24.301 0 44.005-19.704 44.005-44.005 0-13.231-5.839-25.101-15.086-33.17l-0.052-0.043-356.458-365.256 356.458-365.476c7.651-7.911 12.372-18.697 12.372-30.586 0-24.086-19.354-43.659-43.363-44h-0.029z" />
<glyph unicode="&#xe905;" glyph-name="angle-right" horiz-adv-x="553" d="M79.355 0.24c-0.013 0-0.028 0-0.036 0-24.734 0-44.787 20.053-44.787 44.787 0 12.211 4.888 23.278 12.808 31.359l363.216 371.726-363.224 371.734c-7.913 8.077-12.793 19.142-12.793 31.351 0 24.751 20.067 44.817 44.817 44.817 12.543 0 23.878-5.153 32.014-13.459l393.464-403.317c7.853-8.059 12.691-19.083 12.691-31.239s-4.843-23.18-12.702-31.25l0.011 0.011-393.903-403.085c-8.038-8.202-19.199-13.318-31.55-13.436h-0.025z" />
<glyph unicode="&#xe906;" glyph-name="arrow-up" horiz-adv-x="753" d="M733.44 636.8l-312.32 304.96c-11.517 11.219-27.271 18.139-44.64 18.139s-33.123-6.919-44.654-18.152l0.014 0.013-312.64-304.96c-12.153-11.745-19.698-28.192-19.698-46.4 0-35.621 28.877-64.498 64.498-64.498 17.413 0 33.214 6.9 44.818 18.116l-0.018-0.018 203.52 200v-744c0-35.346 28.654-64 64-64s64 28.654 64 64v0 744l203.84-200c11.716-12.548 28.356-20.369 46.822-20.369 35.346 0 64 28.654 64 64 0 19.024-8.3 36.109-21.477 47.832l-0.065 0.057z" />
<glyph unicode="&#xe907;" glyph-name="arrow-left" d="M940.864 507.89h-696.242l187.163 190.456c10.48 10.843 16.938 25.63 16.938 41.923 0 33.334-27.023 60.357-60.357 60.357-17.038 0-32.429-7.061-43.405-18.415l-0.017-0.017-285.385-292.27c-10.499-10.78-16.973-25.519-16.973-41.775s6.474-30.995 16.987-41.789l-0.013 0.014 285.385-292.27c10.967-11.427 26.366-18.524 43.421-18.524 33.22 0 60.151 26.929 60.151 60.151 0 16.164-6.374 30.839-16.75 41.647l0.019-0.020-187.163 190.754h696.242c33.077 0 59.89 26.815 59.89 59.89s-26.815 59.89-59.89 59.89v0z" />
<glyph unicode="&#xe908;" glyph-name="arrow-right" d="M984.38 489.977l-285.738 292.635c-11.005 11.387-26.416 18.455-43.474 18.455-33.374 0-60.432-27.058-60.432-60.432 0-16.316 6.465-31.119 16.972-41.992l-0.017 0.017 186.493-190.693h-696.208c-33.12 0-59.965-26.849-59.965-59.965s26.849-59.965 59.965-59.965v0h697.106l-187.394-190.993c-11.757-10.977-19.085-26.569-19.085-43.871 0-33.12 26.849-59.965 59.965-59.965 17.824 0 33.834 7.778 44.818 20.124l0.052 0.061 285.738 292.635c10.964 10.869 17.749 25.936 17.749 42.588 0 16.050-6.305 30.626-16.574 41.389l0.023-0.024z" />
<glyph unicode="&#xe909;" glyph-name="arrow-down" horiz-adv-x="753" d="M736 349.76c-11.584 11.597-27.594 18.77-45.28 18.77s-33.696-7.174-45.279-18.77l-0.001-0.001-203.52-199.040v745.28c0 35.346-28.654 64-64 64s-64-28.654-64-64v0-744l-205.12 200c-11.586 11.198-27.387 18.098-44.8 18.098-35.621 0-64.498-28.877-64.498-64.498 0-18.208 7.545-34.655 19.68-46.382l0.018-0.018 312.32-305.28c11.517-11.219 27.271-18.139 44.64-18.139s33.123 6.919 44.654 18.152l-0.014-0.013 312.32 305.28c12.481 11.708 20.256 28.305 20.256 46.717 0 16.982-6.614 32.419-17.406 43.875l0.030-0.032z" />
<glyph unicode="&#xe90a;" glyph-name="bell" horiz-adv-x="932" d="M911.37 241.134l-75.591 93.48c-18.487 21.783-29.729 50.22-29.729 81.283 0 2.784 0.090 5.547 0.268 8.287l-0.019-0.373q0 13.102 0 25.197v169.323c0 188.699-152.971 341.669-341.669 341.669s-341.669-152.971-341.669-341.669v0-168.063q0-13.354 0-25.197c0.233-2.872 0.366-6.218 0.366-9.595 0-30.295-10.693-58.092-28.511-79.824l0.176 0.222-75.591-93.48c-12.92-15.809-20.748-36.219-20.748-58.457 0-51.152 41.42-92.63 92.55-92.724h205.363c6.954-86.916 79.201-154.816 167.307-154.816s160.353 67.899 167.269 154.225l0.038 0.591h206.614c51.139 0.094 92.559 41.572 92.559 92.724 0 22.238-7.828 42.647-20.88 58.623l0.132-0.166zM465.638 36.787c-31.979 0.104-58.696 22.505-65.427 52.464l-0.085 0.449h131.276c-6.832-30.479-33.658-52.913-65.725-52.913-0.014 0-0.027 0-0.041 0h0.002zM109.858 190.488l66.52 80.126c31.77 38.723 51.027 88.77 51.027 143.315 0 5.961-0.23 11.867-0.682 17.712l0.048-0.775q0 9.071 0 18.646v168.819c0 133.035 107.846 240.882 240.882 240.882s240.882-107.846 240.882-240.882v0-168.063c0-6.299 0-12.598 0-18.646-0.437-5.278-0.686-11.424-0.686-17.628 0-54.574 19.278-104.646 51.396-143.777l-0.316 0.397 65.512-80.378z" />
<glyph unicode="&#xe90b;" glyph-name="suitcase" horiz-adv-x="1128" d="M917.159 772.353h-55.507c-7.967 87.432-80.829 155.426-169.613 155.627h-255.767c-88.805-0.201-161.666-68.195-169.585-154.961l-0.049-0.666h-56.804c-96.407 0-174.562-78.154-174.562-174.562v0-455.209c0.147-96.296 78.245-174.302 174.562-174.302h707.325c96.407 0 174.562 78.154 174.562 174.562v0 454.949c0 96.407-78.154 174.562-174.562 174.562v0zM436.271 824.228h255.747c31.51-0.076 57.877-22.002 64.756-51.424l0.089-0.451h-384.399c6.884 29.537 32.724 51.301 63.744 51.874l0.063 0.001zM209.834 668.601h707.325c39.107 0 70.81-31.703 70.81-70.81v0-58.879h-263.788c-18.135 45.829-62.005 77.681-113.331 77.814h-93.394c-51.343-0.133-95.213-31.985-113.060-76.989l-0.289-0.825h-265.085v58.879c0 39.107 31.703 70.81 70.81 70.81v0zM628.989 494.818v-93.377c-0.143-9.969-8.188-18.012-18.143-18.157h-93.391c-9.969 0.143-18.012 8.188-18.157 18.143v93.391c0.143 9.969 8.188 18.012 18.143 18.157h93.391c9.969-0.143 18.012-8.188 18.157-18.143v-0.014zM917.159 72.031h-707.325c0 0 0 0-0.001 0-39.016 0-70.662 31.555-70.81 70.536v292.593h256.525v-33.719c0.147-67.268 54.639-121.76 121.894-121.908h93.391c67.268 0.147 121.76 54.639 121.908 121.894v33.734h256.525v-292.578c-0.141-39.001-31.789-70.563-70.81-70.563-0.457 0-0.911 0.005-1.366 0.013l0.068-0.001z" />
<glyph unicode="&#xe90c;" glyph-name="calendar" horiz-adv-x="1193" d="M969.579 818.31h-72.115v54.841c0 30.287-24.553 54.841-54.841 54.841s-54.841-24.553-54.841-54.841v0-54.841h-383.883v54.841c0 30.287-24.553 54.841-54.841 54.841s-54.841-24.553-54.841-54.841v0-54.841h-72.39c-101.917 0-184.538-82.62-184.538-184.538v0-481.225c0.156-101.799 82.717-184.264 184.538-184.264h747.75c101.917 0 184.538 82.62 184.538 184.538v0 480.951c0 101.917-82.62 184.538-184.538 184.538v0zM221.83 708.629h72.39v-27.42c0-30.287 24.553-54.841 54.841-54.841s54.841 24.553 54.841 54.841v0 27.42h383.883v-27.42c0-30.287 24.553-54.841 54.841-54.841s54.841 24.553 54.841 54.841v0 27.42h72.115c41.342 0 74.857-33.515 74.857-74.857v0-62.244h-897.464v62.244c0 41.342 33.515 74.857 74.857 74.857v0zM969.579 77.965h-747.749c0 0 0 0-0.001 0-41.246 0-74.7 33.358-74.857 74.568v309.315h898.834v-309.3c-0.149-41.23-33.606-74.595-74.857-74.595-0.482 0-0.964 0.005-1.444 0.014l0.072-0.001zM513.581 269.906c0-60.575-49.106-109.681-109.681-109.681s-109.681 49.106-109.681 109.681c0 60.575 49.106 109.681 109.681 109.681s109.681-49.106 109.681-109.681zM897.464 269.906c0-60.575-49.106-109.681-109.681-109.681s-109.681 49.106-109.681 109.681c0 60.575 49.106 109.681 109.681 109.681s109.681-49.106 109.681-109.681z" />
<glyph unicode="&#xe90d;" glyph-name="caret-down" d="M978.226 674.068c-7.226 17.51-24.15 29.609-43.911 29.609-0.048 0-0.103 0-0.144 0h-852.607c-0.016 0-0.021 0-0.048 0-26.161 0-47.359-21.211-47.359-47.359 0-13.264 5.45-25.263 14.253-33.855l426.548-416.141c8.526-8.31 20.185-13.424 33.038-13.424s24.517 5.124 33.054 13.431l-0.016-0.016 426.31 416.59c8.763 8.603 14.19 20.573 14.19 33.804 0 6.241-1.204 12.211-3.4 17.67l0.112-0.318z" />
<glyph unicode="&#xe90e;" glyph-name="caret-up" d="M971.055 273.371l-427.035 417.078c-8.534 8.314-20.205 13.439-33.076 13.439s-24.541-5.128-33.089-13.447l0.011 0.011-427.035-417.078c-8.81-8.618-14.269-20.623-14.269-33.906 0-26.189 21.23-47.422 47.422-47.422 0.013 0 0.027 0 0.043 0h853.597c0.011 0 0.027 0 0.043 0 26.189 0 47.422 21.23 47.422 47.422 0 13.281-5.459 25.291-14.26 33.898l-0.009 0.009z" />
<glyph unicode="&#xe90f;" glyph-name="cart-o" horiz-adv-x="1151" d="M1131.765 663.297c-15.42 20.042-38.288 33.697-64.393 36.811l-0.452 0.044-768.35 87.705c-2.446 0.22-5.29 0.346-8.164 0.346s-5.718-0.126-8.529-0.371l0.365 0.026-2.333 29.39c-4.463 36.056-28.337 65.609-60.691 78.151l-0.656 0.224-154.883 61.113c-5.563 2.529-12.063 4.004-18.908 4.004-25.765 0-46.651-20.887-46.651-46.651 0-20.341 13.018-37.641 31.177-44.024l0.327-0.1 154.65-61.113c1.007-0.356 1.74-1.245 1.865-2.32l0.001-0.013 10.263-88.171c-2.155-7.475-3.394-16.061-3.394-24.936 0-3.706 0.216-7.362 0.636-10.956l-0.042 0.437 37.788-316.064c4.451-36.072 28.576-65.572 61.157-77.694l0.656-0.214-40.354-149.985c-2.389-7.393-3.766-15.898-3.766-24.725 0-45.862 37.178-83.040 83.040-83.040 0.012 0 0.024 0 0.036 0h55.98c18.079-55.616 69.448-95.11 130.041-95.11s111.962 39.494 129.769 94.145l0.272 0.965h66.478c18.079-55.616 69.448-95.11 130.041-95.11s111.962 39.494 129.769 94.145l0.272 0.965h30.79c25.765 0 46.651 20.887 46.651 46.651s-20.887 46.651-46.651 46.651v0h-34.522c-20.911 50.185-69.565 84.82-126.309 84.82s-105.398-34.636-125.975-83.919l-0.334-0.902h-73.943c-20.911 50.185-69.565 84.82-126.309 84.82s-105.398-34.636-125.975-83.919l-0.334-0.902h-46.651l43.153 159.082h631.661c47.115 0.046 86.152 34.575 93.234 79.707l0.069 0.533 35.922 227.659c0.767 4.543 1.205 9.777 1.205 15.114 0 21.361-7.020 41.081-18.879 56.981l0.18-0.252zM844.858 115.841c23.828-0.006 43.143-19.324 43.143-43.153 0-23.833-19.32-43.153-43.153-43.153s-43.153 19.32-43.153 43.153c0 0.328 0.004 0.655 0.011 0.982l-0.001-0.049c0.523 23.428 19.638 42.22 43.143 42.22 0.004 0 0.007 0 0.011 0h-0.001zM518.298 115.841c23.828-0.006 43.143-19.324 43.143-43.153 0-23.833-19.32-43.153-43.153-43.153s-43.153 19.32-43.153 43.153c0 0.328 0.004 0.655 0.011 0.982l-0.001-0.049c0.523 23.428 19.638 42.22 43.143 42.22 0.004 0 0.007 0 0.011 0h-0.001zM1020.035 376.856l-696.040 1.4-37.321 316.764 768.35-87.705 1.4-1.866z" />
<glyph unicode="&#xe910;" glyph-name="cart" horiz-adv-x="1151" d="M1131.765 663.297c-15.42 20.042-38.288 33.697-64.393 36.811l-0.452 0.044-768.35 87.938c-2.446 0.223-5.29 0.351-8.164 0.351s-5.718-0.127-8.527-0.377l0.363 0.026-2.333 29.157c-4.379 36.151-28.276 65.807-60.691 78.384l-0.656 0.224-154.883 60.88c-5.563 2.529-12.063 4.004-18.908 4.004-25.765 0-46.651-20.887-46.651-46.651 0-20.341 13.018-37.641 31.177-44.024l0.327-0.1 154.65-61.113c1.007-0.356 1.74-1.245 1.865-2.32l0.001-0.013 10.263-88.171c-2.167-7.544-3.413-16.209-3.413-25.165 0-3.79 0.223-7.528 0.657-11.202l-0.043 0.445 37.788-315.364c4.451-36.072 28.576-65.572 61.157-77.694l0.656-0.214-40.354-150.218c-2.389-7.393-3.766-15.898-3.766-24.725 0-45.862 37.178-83.040 83.040-83.040 0.012 0 0.024 0 0.036 0h55.98c18.079-55.616 69.448-95.11 130.041-95.11s111.962 39.494 129.769 94.145l0.272 0.965h66.478c18.079-55.616 69.448-95.11 130.041-95.11s111.962 39.494 129.769 94.145l0.272 0.965h30.79c25.765 0 46.651 20.887 46.651 46.651s-20.887 46.651-46.651 46.651v0h-34.522c-20.911 50.185-69.565 84.82-126.309 84.82s-105.398-34.636-125.975-83.919l-0.334-0.902h-73.943c-20.911 50.185-69.565 84.82-126.309 84.82s-105.398-34.636-125.975-83.919l-0.334-0.902h-46.651l43.153 159.082h631.894c47.115 0.046 86.152 34.575 93.234 79.707l0.069 0.533 35.922 227.659c0.74 4.465 1.164 9.611 1.164 14.855 0 21.474-7.095 41.291-19.068 57.234l0.177-0.246z" />
<glyph unicode="&#xe911;" glyph-name="checkbox-checked" d="M819.2 960h-614.4c-113.108 0-204.8-91.692-204.8-204.8v0-614.4c0-113.108 91.692-204.8 204.8-204.8v0h614.4c113.108 0 204.8 91.692 204.8 204.8v0 614.4c0 113.108-91.692 204.8-204.8 204.8v0zM772.096 552.704l-281.6-281.6c-9.265-9.262-22.063-14.99-36.198-14.99-12.108 0-23.234 4.203-31.999 11.229l0.101-0.078-140.8 112.64c-11.016 9.448-17.952 23.382-17.952 38.936 0 28.277 22.923 51.2 51.2 51.2 11.598 0 22.296-3.857 30.88-10.357l-0.128 0.093 104.96-83.968 249.088 249.088c9.271 9.271 22.078 15.004 36.224 15.004 28.293 0 51.228-22.936 51.228-51.228 0-14.146-5.734-26.953-15.004-36.224v0z" />
<glyph unicode="&#xe912;" glyph-name="checkbox-unchecked" d="M819.2-64h-614.4c-113.108 0-204.8 91.692-204.8 204.8v0 614.4c0 113.108 91.692 204.8 204.8 204.8v0h614.4c113.108 0 204.8-91.692 204.8-204.8v0-614.4c0-113.108-91.692-204.8-204.8-204.8v0zM204.8 857.6c-56.554 0-102.4-45.846-102.4-102.4v0-614.4c0-56.554 45.846-102.4 102.4-102.4v0h614.4c56.554 0 102.4 45.846 102.4 102.4v0 614.4c0 56.554-45.846 102.4-102.4 102.4v0z" />
<glyph unicode="&#xe913;" glyph-name="cross" d="M594.469 448l317.347 316.765c10.417 10.56 16.85 25.075 16.85 41.090 0 32.321-26.201 58.522-58.522 58.522-16.306 0-31.053-6.668-41.666-17.427l-316.48-316.48-316.765 316.472c-10.125 8.71-23.397 14.015-37.91 14.015-32.188 0-58.283-26.093-58.283-58.283 0-14.513 5.305-27.784 14.079-37.987l-0.064 0.076 316.472-316.765-316.472-316.472c-10.764-10.62-17.432-25.366-17.432-41.672 0-32.321 26.201-58.522 58.522-58.522 16.015 0 30.529 6.433 41.095 16.858l-0.007-0.007 316.765 317.347 316.472-317.347c10.665-10.665 25.399-17.262 41.672-17.262 32.549 0 58.934 26.385 58.934 58.934 0 16.273-6.596 31.007-17.262 41.672v0z" />
<glyph unicode="&#xe914;" glyph-name="tick" d="M298.699 77.089h-2.060c-16.953 0.63-31.993 8.339-42.33 20.239l-0.064 0.071-222.546 255.515c-7.441 9.753-11.92 22.114-11.92 35.52 0 32.515 26.359 58.876 58.876 58.876 16.124 0 30.732-6.481 41.368-16.982l-0.006 0.006 181.043-208.123 579.918 579.329c10.659 10.659 25.385 17.253 41.653 17.253 32.534 0 58.907-26.372 58.907-58.907 0-16.265-6.593-30.994-17.253-41.653v0l-623.192-623.779c-10.668-10.731-25.435-17.37-41.758-17.37-0.223 0-0.445 0.002-0.667 0.006h0.033z" />
<glyph unicode="&#xe915;" glyph-name="coins" horiz-adv-x="1261" d="M914.49 150.145v-2.954c0-10.74-8.707-19.447-19.447-19.447v0h-3.446c-10.74 0-19.447 8.707-19.447 19.447v0c0 0.048 0.001 0.105 0.001 0.162 0 9.209-6.484 16.905-15.136 18.769l-0.127 0.023c-19.325 3.32-36.51 10.581-51.366 20.949l0.411-0.272c-5.304 3.584-8.744 9.575-8.744 16.368 0 4.085 1.243 7.879 3.373 11.024l-0.044-0.069 9.847 15.754c3.54 5.877 9.886 9.747 17.137 9.747 3.962 0 7.655-1.156 10.758-3.148l-0.080 0.048c13.795-9.545 30.797-15.383 49.139-15.753l0.093-0.002c19.447 0 31.263 10.092 31.263 24.616s-15.754 24.616-38.648 32.493c-33.724 10.092-80.248 25.847-80.248 83.94 0 0.006 0 0.012 0 0.020 0 36.694 24.78 67.6 58.518 76.898l0.56 0.131c7.78 2.571 13.293 9.777 13.293 18.27 0 0.068 0 0.135-0.001 0.203v-0.010 2.954c0 10.74 8.707 19.447 19.447 19.447v0h3.446c10.74 0 19.447-8.707 19.447-19.447v0-2.215c0-0.044-0.001-0.097-0.001-0.149 0-8.854 5.993-16.308 14.144-18.527l0.135-0.031c13.987-3.412 26.301-8.659 37.472-15.578l-0.548 0.316c5.436-3.564 8.976-9.629 8.976-16.521 0-3.917-1.144-7.567-3.115-10.634l0.047 0.078-9.847-15.754c-3.568-5.412-9.62-8.936-16.495-8.936-3.725 0-7.208 1.034-10.179 2.831l0.088-0.050c-11.881 6.913-26.106 11.087-41.287 11.322l-0.068 0.001c-18.216 0-27.078-9.354-27.078-21.416s15.509-21.908 38.648-30.524c34.955-12.554 81.233-29.54 81.233-84.433 0.062-1.176 0.097-2.552 0.097-3.937 0-36.643-24.56-67.551-58.116-77.157l-0.566-0.139c-7.908-2.494-13.543-9.763-13.543-18.348 0-0.127 0.001-0.253 0.004-0.38v0.019zM889.875 635.82c-21.877-0.039-43.227-2.187-63.89-6.253l2.104 0.345v101.172c0 98.465-135.388 196.928-393.857 196.928s-394.841-98.465-394.841-196.928v-566.169c0-98.465 135.388-196.928 393.857-196.928 6.565-0.246 14.274-0.386 22.017-0.386 93.142 0 181.549 20.27 261.051 56.641l-3.922-1.608c50.035-31.818 110.996-50.709 176.37-50.709 183.398 0 332.070 148.673 332.070 332.070 0 183.353-148.601 331.998-331.937 332.070h-0.007zM594.482 453.908c-46.329-11.598-99.515-18.253-154.256-18.253-2.454 0-4.905 0.013-7.353 0.040l0.374-0.003c-183.144 0-295.393 63.755-295.393 98.465v62.771c66.217-38.154 165.174-62.771 295.393-62.771s229.175 24.616 295.393 62.771v-2.215c-58.345-32.812-104.764-80.812-134.757-138.696l-0.878-1.862zM137.855 399.999c66.217-38.154 165.174-62.771 295.393-62.771 0.569-0.001 1.242-0.002 1.915-0.002 43.977 0 87.16 3.401 129.299 9.957l-4.688-0.6c-1.992-13.044-3.13-28.092-3.13-43.406 0-18.587 1.676-36.783 4.885-54.444l-0.278 1.848c-38.004-7.516-81.699-11.818-126.397-11.818-0.565 0-1.13 0.001-1.694 0.002h0.088c-183.144 0-295.393 63.755-295.393 98.465zM433.248 829.548c183.144 0 295.393-63.755 295.393-98.465s-112.249-98.465-295.393-98.465-295.393 63.755-295.393 98.465 112.249 98.465 295.393 98.465zM137.855 164.915v38.154c66.217-38.154 165.174-62.771 295.393-62.771 1.353-0.008 2.952-0.013 4.554-0.013 54.566 0 107.853 5.471 159.345 15.895l-5.125-0.866c11.44-22.683 24.127-42.216 38.649-60.204l-0.495 0.634c-56.295-18.615-121.095-29.352-188.403-29.352-2.997 0-5.989 0.022-8.977 0.064l0.452-0.005c-183.144 0-295.393 63.755-295.393 98.465zM888.89 69.898c-129.153 0-233.853 104.699-233.853 233.853s104.699 233.853 233.853 233.853c129.153 0 233.853-104.699 233.853-233.853v0c-0.14-129.097-104.755-233.713-233.839-233.853h-0.013z" />
<glyph unicode="&#xe916;" glyph-name="credit-card-o" d="M859.032 796.953h-694.062c-84.726-0.113-153.383-68.769-153.495-153.481v-390.93c0.113-84.726 68.769-153.383 153.481-153.495h694.074c84.726 0.113 153.383 68.769 153.495 153.481v390.93c-0.113 84.726-68.769 153.383-153.481 153.495h-0.012zM164.968 716.061h694.062c40.098 0 72.601-32.504 72.601-72.601v0-65.522h-839.268v65.522c0 40.098 32.504 72.601 72.601 72.601v0zM859.032 179.939h-694.062c-40.098 0-72.601 32.504-72.601 72.601v244.503h839.268v-244.503c0-40.098-32.504-72.601-72.601-72.601v0zM840.629 446.483h-284.743c-22.339 0-40.448-18.108-40.448-40.448s18.108-40.448 40.448-40.448v0h284.743c22.339 0 40.448 18.108 40.448 40.448s-18.108 40.448-40.448 40.448v0z" />
<glyph unicode="&#xe917;" glyph-name="credit-card" d="M859.031 796.953h-694.061c-84.726-0.114-153.38-68.769-153.495-153.483v-390.928c0.114-84.726 68.769-153.38 153.483-153.495h694.072c84.726 0.114 153.38 68.769 153.495 153.483v390.928c-0.114 84.726-68.769 153.38-153.483 153.495h-0.011zM881.075 345.371h-284.742c-22.338 0-40.448 18.108-40.448 40.448s18.108 40.448 40.448 40.448v0h284.742c22.338 0 40.448-18.108 40.448-40.448s-18.108-40.448-40.448-40.448v0zM891.184 497.043h-768.483c-22.338 0-40.448 18.108-40.448 40.448s18.108 40.448 40.448 40.448v0h768.483c22.338 0 40.448-18.108 40.448-40.448s-18.108-40.448-40.448-40.448v0z" />
<glyph unicode="&#xe918;" glyph-name="envelope-o" d="M828.082 800h-627.824c-82.964-0.237-150.141-67.49-150.259-150.457v-403.075c0.118-83.055 67.413-150.35 150.457-150.468h627.836c83.055 0.118 150.35 67.414 150.468 150.457v403.075c-0.118 83.127-67.534 150.468-150.677 150.468 0 0 0 0 0 0v0zM828.082 716.29c8.67-0.025 16.936-1.711 24.512-4.762l-0.446 0.159-344.467-221.622-338.816 217.855c9.102 5.177 19.981 8.27 31.571 8.371h0.028zM828.082 179.71h-627.824c-36.779 0.118-66.549 29.961-66.549 66.758 0 0 0 0 0 0.001v0 384.646l351.372-226.016c6.389-4.155 14.207-6.628 22.6-6.628s16.211 2.47 22.764 6.726l-0.161-0.099 364.557 234.387v-393.017c0-36.869-29.89-66.758-66.758-66.758v0z" />
<glyph unicode="&#xe919;" glyph-name="privacy-off" horiz-adv-x="1058" d="M1052.672 459.565c-67.919 124.629-175.536 220.398-305.582 271.589l-4.028 1.397 91.317 155.166c5.328 7.642 8.512 17.123 8.512 27.349 0 26.614-21.575 48.188-48.188 48.188-19.036 0-35.495-11.038-43.323-27.064l-0.126-0.285-103.605-175.646c-35.7 7.626-76.716 11.993-118.752 11.993-225.006 0-420.789-125.123-521.563-309.585l-1.552-3.102c-3.601-6.588-5.718-14.431-5.718-22.769s2.118-16.181 5.844-23.022l-0.126 0.253c63.422-116.522 161.195-207.535 279.598-260.875l3.749-1.51-84.329-143.119c-5.328-7.642-8.512-17.123-8.512-27.349 0-26.614 21.575-48.188 48.188-48.188 19.036 0 35.495 11.038 43.323 27.064l0.126 0.285 94.208 159.985c44.445-11.937 95.472-18.793 148.101-18.793 224.769 0 420.328 125.062 520.888 309.397l1.55 3.103c3.601 6.588 5.718 14.431 5.718 22.769s-2.118 16.181-5.844 23.022l0.126-0.253zM103.605 436.676c88.86 144.1 245.839 238.706 424.915 238.706 23.574 0 46.765-1.64 69.466-4.811l-2.62 0.3-17.107-29.877c-14.504 3.582-31.155 5.637-48.287 5.637-115.769 0-209.619-93.85-209.619-209.619 0-54.397 20.721-103.955 54.7-141.211l-0.149 0.165-37.587-60.717c-98.657 41.968-178.747 111.657-232.476 199.258l-1.237 2.168zM642.831 436.676c0.002-0.223 0.002-0.486 0.002-0.75 0-62.276-50.485-112.76-112.76-112.76-9.407 0-18.546 1.152-27.282 3.323l0.776-0.163 109.869 186.248c18.222-19.952 29.386-46.62 29.395-75.895v-0.002zM415.624 436.676c0 0.112-0.001 0.244-0.001 0.376 0 60.726 47.697 110.312 107.672 113.337l0.27 0.011-96.376-162.635c-7.188 14.267-11.446 31.078-11.565 48.872v0.039zM530.071 197.18c-0.006 0-0.012 0-0.018 0-34.093 0-67.388 3.421-99.559 9.938l3.201-0.541 20.48 34.696c22.457-8.947 48.482-14.136 75.719-14.136 115.902 0 209.86 93.957 209.86 209.86 0 64.846-29.411 122.823-75.622 161.318l-0.338 0.274 29.877 50.598c110.824-39.471 201.125-113.715 259.946-209.389l1.234-2.157c-88.421-144.789-245.43-240.064-424.721-240.459h-0.058z" />
<glyph unicode="&#xe91a;" glyph-name="privacy-on" d="M1007.028 469.684c-97.429 178.768-283.973 298.040-498.368 298.040s-400.938-119.275-496.889-295.083l-1.479-2.961c-3.423-6.271-5.45-13.735-5.45-21.684s2.021-15.404 5.57-21.924l-0.12 0.241c97.429-178.768 283.973-298.040 498.368-298.040s400.938 119.275 496.889 295.083l1.479 2.961c3.423 6.271 5.45 13.735 5.45 21.684s-2.021 15.404-5.57 21.924l0.12-0.241zM509.466 219.859c-0.297-0.001-0.662-0.002-1.015-0.002-170.87 0-320.581 90.505-403.849 226.183l-1.176 2.061c84.583 137.601 234.296 227.981 405.108 227.981s320.541-90.385 403.945-225.925l1.176-2.061c-84.303-137.514-233.656-227.941-404.148-228.257h-0.048zM509.466 647.925c-110.482 0-200.041-89.557-200.041-200.041s89.557-200.041 200.041-200.041c110.482 0 200.041 89.557 200.041 200.041v0c-0.137 110.424-89.617 199.904-200.021 200.041h-0.017zM509.466 339.836c-59.806 0-108.282 48.476-108.282 108.282s48.476 108.282 108.282 108.282c59.806 0 108.282-48.476 108.282-108.282v0c0-59.806-48.476-108.282-108.282-108.282v0z" />
<glyph unicode="&#xe91b;" glyph-name="sort" horiz-adv-x="1201" d="M1087.989 806.582c0 31.686-25.687 57.373-57.373 57.373v0h-860.597c-31.686 0-57.373-25.687-57.373-57.373s25.687-57.373 57.373-57.373v0h860.597c31.686 0 57.373 25.687 57.373 57.373v0zM1030.616 491.030h-610.736c-31.686 0-57.373-25.687-57.373-57.373s25.687-57.373 57.373-57.373v0h610.736c31.686 0 57.373 25.687 57.373 57.373s-25.687 57.373-57.373 57.373v0zM1030.616 146.79h-333.051c-31.686 0-57.373-25.687-57.373-57.373s25.687-57.373 57.373-57.373v0h333.051c31.686 0 57.373 25.687 57.373 57.373s-25.687 57.373-57.373 57.373v0z" />
<glyph unicode="&#xe91c;" glyph-name="flag" horiz-adv-x="742" d="M542.518 663.086l187 216.424c7.384 8.482 11.886 19.644 11.886 31.856 0 26.764-21.619 48.479-48.347 48.634h-644.423c-26.86 0-48.635-21.774-48.635-48.635v0-926.731c0-26.86 21.774-48.635 48.635-48.635s48.635 21.774 48.635 48.635v0 381.538h595.773c26.742 0.155 48.361 21.87 48.361 48.634 0 12.213-4.501 23.374-11.936 31.915l0.050-0.059zM97.269 463.441v399.289h489.263l-145.904-167.789c-7.384-8.482-11.885-19.643-11.885-31.856s4.501-23.373 11.935-31.914l-0.050 0.059 145.904-167.789z" />
<glyph unicode="&#xe91d;" glyph-name="globe" d="M512 960c-282.77 0-512-229.23-512-512s229.23-512 512-512c282.77 0 512 229.23 512 512v0c0 282.77-229.23 512-512 512v0zM512 38.4c-31.488 0-84.48 76.8-111.36 219.136h222.464c-26.624-142.336-79.616-219.136-111.104-219.136zM387.328 359.936c-3.328 27.648-3.328 56.832-3.328 88.064s1.28 62.464 3.584 91.136h248.832c2.304-28.672 3.584-58.88 3.584-91.136s0-60.416-3.328-88.064zM112.384 359.936c-6.615 27.186-10.409 58.398-10.409 90.496s3.794 63.31 10.958 93.211l-0.549-2.715c1.227-0.105 2.654-0.164 4.096-0.164s2.869 0.060 4.281 0.176l-0.185-0.012h163.584c-2.56-32-2.56-62.464-2.56-92.928s0-58.88 3.328-88.064h-163.584c-3.222-0.085-6.306-0.454-9.294-1.083l0.334 0.059zM512 857.6c31.232 0 83.712-75.264 110.848-216.064h-221.696c27.136 140.8 79.616 216.064 110.848 216.064zM739.072 539.136h172.032c6.47-26.92 10.181-57.827 10.181-89.6s-3.711-62.68-10.722-92.311l0.541 2.711h-172.032c3.328 29.184 3.328 58.624 3.328 88.064s0 60.928-3.328 91.136zM872.96 641.536h-146.432c-10.844 68.518-29.59 130.065-55.612 187.618l1.852-4.578c86.316-37.675 155.473-101.298 199.116-180.897l1.076-2.143zM350.976 824.576c-24.17-52.977-42.916-114.523-53.213-178.89l-0.547-4.15h-146.176c44.657 81.706 113.722 145.32 197.29 182.004l2.646 1.036zM149.76 257.536h147.2c10.772-69.606 29.712-132.212 56.132-190.715l-1.86 4.603c-87.236 38.183-156.955 102.944-200.393 183.909l-1.079 2.203zM673.024 71.424c24.56 53.9 43.5 116.506 53.742 181.994l0.53 4.118h147.2c-44.516-83.168-114.235-147.929-198.828-185.077l-2.644-1.035z" />
<glyph unicode="&#xe91e;" glyph-name="grid-o" horiz-adv-x="1051" d="M351.086 960h-212.407c-76.59 0-138.679-62.089-138.679-138.679v0-212.407c0-76.59 62.089-138.679 138.679-138.679v0h212.407c0.174-0.001 0.379-0.001 0.585-0.001 76.59 0 138.679 62.089 138.679 138.679 0 0 0 0.001 0 0.001v0 212.407c0 0 0 0.001 0 0.001 0 76.59-62.089 138.679-138.679 138.679-0.206 0-0.411 0-0.617-0.001h0.032zM372.736 608.914c-0.163-11.891-9.759-21.488-21.635-21.65h-212.422c-11.891 0.163-21.488 9.759-21.65 21.635v212.422c0.163 11.891 9.759 21.488 21.635 21.65h212.422c11.891-0.163 21.488-9.759 21.65-21.635v-0.015zM912.238 960h-213.577c-76.59 0-138.679-62.089-138.679-138.679v0-212.407c0-76.59 62.089-138.679 138.679-138.679h213.285c76.59 0 138.679 62.089 138.679 138.679v212.407c0 0 0 0 0 0 0 76.487-61.922 138.512-138.371 138.679h-0.016zM933.888 608.914c-0.163-11.891-9.759-21.488-21.635-21.65h-213.592c-11.891 0.163-21.488 9.759-21.65 21.635v212.422c0.163 11.891 9.759 21.488 21.635 21.65h213.3c11.891-0.163 21.488-9.759 21.65-21.635v-0.015zM351.086 426.35h-212.407c0 0-0.001 0-0.001 0-76.59 0-138.679-62.089-138.679-138.679 0-0.206 0-0.411 0.001-0.617v0.032-213.285c0.498-76.212 62.394-137.801 138.676-137.801 0.001 0 0.002 0 0.003 0h212.407c76.59 0 138.679 62.089 138.679 138.679v0 212.407c0.001 0.174 0.001 0.379 0.001 0.585 0 76.59-62.089 138.679-138.679 138.679 0 0-0.001 0-0.001 0v0zM372.736 75.264c0.001-0.088 0.002-0.191 0.002-0.294 0-12.017-9.659-21.777-21.637-21.941h-212.422c-11.891 0.163-21.488 9.759-21.65 21.635v212.422c0.163 11.891 9.759 21.488 21.635 21.65h212.422c11.891-0.163 21.488-9.759 21.65-21.635v-0.015zM912.238 426.35h-213.577c-76.465-0.166-138.388-62.191-138.388-138.679 0-0.206 0-0.412 0.001-0.617v0.032-213.285c0.497-76.11 62.229-137.637 138.371-137.801h213.301c76.59 0 138.679 62.089 138.679 138.679v0 212.407c0.001 0.174 0.001 0.38 0.001 0.585 0 76.488-61.923 138.513-138.372 138.679h-0.016zM933.888 75.264c-0.163-11.891-9.759-21.488-21.635-21.65h-213.592c-11.891 0.163-21.488 9.759-21.65 21.635v211.837c0.163 11.891 9.759 21.488 21.635 21.65h213.3c11.891-0.163 21.488-9.759 21.65-21.635v-0.015z" />
<glyph unicode="&#xe91f;" glyph-name="grid" horiz-adv-x="1051" d="M138.679 960h212.992c76.59 0 138.679-62.089 138.679-138.679v-212.992c0-76.59-62.089-138.679-138.679-138.679h-212.992c-76.59 0-138.679 62.089-138.679 138.679v212.992c0 76.59 62.089 138.679 138.679 138.679zM698.953 960h213.285c76.59 0 138.679-62.089 138.679-138.679v-212.992c0-76.59-62.089-138.679-138.679-138.679h-213.285c-76.59 0-138.679 62.089-138.679 138.679v212.992c0 76.59 62.089 138.679 138.679 138.679zM138.679 426.35h212.992c76.59 0 138.679-62.089 138.679-138.679v-212.992c0-76.59-62.089-138.679-138.679-138.679h-212.992c-76.59 0-138.679 62.089-138.679 138.679v212.992c0 76.59 62.089 138.679 138.679 138.679zM698.953 426.35h213.285c76.59 0 138.679-62.089 138.679-138.679v-212.992c0-76.59-62.089-138.679-138.679-138.679h-213.285c-76.59 0-138.679 62.089-138.679 138.679v212.992c0 76.59 62.089 138.679 138.679 138.679z" />
<glyph unicode="&#xe920;" glyph-name="headphones" horiz-adv-x="876" d="M876.489 536.825c0 233.273-196.518 423.175-438.367 423.175s-438.122-189.902-438.122-423.175c0.105-85.79 26.468-165.402 71.482-231.255l-0.912 1.413c2.976-4.256 6.459-7.895 10.421-10.941l0.116-0.085v-39.451c1.373-87.585 72.696-158.060 160.479-158.060 0.696 0 1.39 0.004 2.084 0.013l-0.105-0.001h64.934c27.066 0 49.007 21.941 49.007 49.007v0 343.049c0 27.066-21.941 49.007-49.007 49.007v0h-64.934c-0.221 0.001-0.483 0.002-0.745 0.002-56.785 0-106.806-28.959-136.1-72.914l-0.375-0.598c-5.24 21.253-8.274 45.666-8.331 70.778v0.037c0 178.14 152.657 325.161 340.108 325.161s340.108-147.021 340.108-325.161c-0.038-19.252-1.819-38.062-5.195-56.313l0.294 1.915c-30.224 34.757-74.516 56.604-123.911 56.604-0.199 0-0.398 0-0.597-0.001h-64.658c-27.066 0-49.007-21.941-49.007-49.007v0-343.049c0-27.066 21.941-49.007 49.007-49.007v0h40.431c-28.831-33.523-68.635-56.894-113.789-64.531l-1.132-0.158c-25.666-1.785-45.81-23.044-45.81-49.007 0-27.127 21.991-49.118 49.118-49.118 1.164 0 2.318 0.040 3.462 0.12l-0.154-0.009h6.371c7.596 0 183.531 26.219 222.001 192.352 40.478 28.546 66.656 75.022 66.894 127.626v60.561c40.613 62.498 64.809 138.921 64.934 220.988v0.034zM179.12 380.983c1.336 33.453 28.779 60.066 62.437 60.066 0.706 0 1.409-0.012 2.109-0.035l-0.102 0.003h15.927v-245.035h-15.927c-0.598-0.021-1.301-0.032-2.007-0.032-33.658 0-61.101 26.613-62.433 59.945l-0.004 0.121zM633.17 441.017h15.927c0.598 0.021 1.301 0.032 2.007 0.032 33.658 0 61.101-26.613 62.433-59.945l0.004-0.121v-124.723c-1.336-33.453-28.779-60.066-62.437-60.066-0.706 0-1.409 0.012-2.109 0.035l0.102-0.003h-15.927z" />
<glyph unicode="&#xe921;" glyph-name="heart-o" horiz-adv-x="1134" d="M1123.43 708.11c-33.409 138.937-146.361 244.466-268.595 251.89-152.99 8.22-240.489-41.363-287.95-85.643-47.461 43.484-134.96 93.067-287.95 85.643-122.233-7.424-235.186-112.953-268.595-251.89-28.901-119.316-35.53-437.494 530.030-764.686v0c7.744-3.699 16.758-6.164 26.261-6.879l0.253-0.015c9.757 0.736 18.77 3.201 26.977 7.091l-0.462-0.197c565.56 327.192 559.196 645.369 530.030 764.686zM566.62 51.074c-331.169 199.656-500.599 434.577-453.137 632.377 26.515 106.059 106.059 166.513 171.285 169.96 183.747 9.81 230.944-80.87 233.86-86.438 0-1.591 1.591-2.917 2.386-4.242l1.856-3.447c1.319-1.886 2.625-3.529 4.022-5.088l-0.044 0.050 2.386-2.917 5.038-4.242 2.917-2.121 6.629-3.712h2.121l7.424-2.386h25.984l7.424 2.386h1.856c2.775 1.281 5.123 2.608 7.351 4.098l-0.192-0.121 3.447 2.651c1.958 1.462 3.688 2.939 5.316 4.52l-0.013-0.013 2.386 2.651c1.457 1.594 2.849 3.324 4.131 5.137l0.111 0.166 1.856 3.182c0.929 1.391 1.898 3.040 2.777 4.742l0.139 0.296s46.931 94.923 232.534 85.378c64.166-3.447 145.831-64.166 171.285-169.96 48.257-198.33-121.172-433.251-452.872-632.907z" />
<glyph unicode="&#xe922;" glyph-name="heart" horiz-adv-x="1134" d="M1123.43 708.11c-33.409 138.937-146.361 244.466-268.595 251.89-153.255 8.22-240.754-41.363-287.95-85.643-47.461 43.484-134.96 93.067-287.95 85.643-122.233-7.424-235.186-112.953-268.595-251.89-28.901-119.316-35.53-437.494 530.030-764.686v0c7.744-3.699 16.758-6.164 26.261-6.879l0.253-0.015c9.757 0.736 18.77 3.201 26.977 7.091l-0.462-0.197c565.56 327.192 559.196 645.369 530.030 764.686z" />
<glyph unicode="&#xe923;" glyph-name="home-o" horiz-adv-x="1066" d="M1049.809 509.058l-485.116 438.516c-8.354 7.319-19.368 11.784-31.425 11.784s-23.071-4.465-31.48-11.831l0.055 0.047-486.071-438.516c-9.865-8.841-16.044-21.622-16.044-35.846 0-26.546 21.52-48.066 48.066-48.066 12.322 0 23.561 4.637 32.068 12.26l-0.045-0.040 49.228 44.688v-423.699c0-65.991 53.496-119.487 119.487-119.487v0h147.446c3.854-1.168 8.289-1.863 12.879-1.912h247.602c4.616 0.048 9.050 0.744 13.243 1.999l-0.338-0.087h151.031c64.333 0.272 116.38 52.486 116.38 116.857 0 0 0 0.001 0 0.001v0 426.328l49.228-44.449c8.461-7.584 19.7-12.22 32.022-12.22 26.546 0 48.066 21.52 48.066 48.066 0 14.224-6.179 27.005-15.998 35.806l-0.045 0.040zM608.665 33.501h-151.748v235.15c0 19.665 15.942 35.607 35.607 35.607v0h81.012c19.665 0 35.607-15.942 35.607-35.607v0zM840.947 544.904v-490.134c0-0.002 0-0.003 0-0.005 0-11.578-9.252-20.996-20.766-21.263h-115.927v235.15c0 0 0 0.001 0 0.001 0 72.29-58.466 130.924-130.692 131.195h-81.277c-72.458 0-131.196-58.739-131.196-131.196v0-235.15h-112.317c-13.198 0-23.897 10.699-23.897 23.897v0 487.505c-0.041 7.298-1.711 14.195-4.665 20.361l0.124-0.288 312.338 282.705 312.816-282.705c-2.829-5.878-4.5-12.776-4.54-20.060v-0.014z" />
<glyph unicode="&#xe924;" glyph-name="home" horiz-adv-x="1068" d="M1051.773 508.214l-486.023 439.336c-8.369 7.333-19.404 11.806-31.484 11.806s-23.115-4.473-31.539-11.853l0.055 0.047-486.981-439.336c-9.884-8.857-16.074-21.662-16.074-35.913 0-26.596 21.56-48.156 48.156-48.156 12.345 0 23.605 4.645 32.128 12.283l-0.045-0.040 49.321 44.772v-424.492c0-66.114 53.596-119.71 119.71-119.71v0h572.693c64.453 0.272 116.598 52.584 116.598 117.075 0 0 0 0.001 0 0.001v0 427.126l49.321-44.532c8.477-7.598 19.737-12.243 32.082-12.243 26.596 0 48.156 21.56 48.156 48.156 0 14.251-6.19 27.056-16.028 35.873l-0.045 0.040zM657.687 53.316h-247.8v243.73c0.136 42.919 34.892 77.676 77.799 77.812h92.19c42.919-0.136 77.676-34.892 77.812-77.799v-0.013z" />
<glyph unicode="&#xe925;" glyph-name="info-o" d="M512 960c-282.77 0-512-229.23-512-512s229.23-512 512-512c282.77 0 512 229.23 512 512v0c-0.271 282.661-229.339 511.729-511.974 512h-0.026zM512 31.256c-230.161 0-416.744 186.583-416.744 416.744s186.583 416.744 416.744 416.744c230.161 0 416.744-186.583 416.744-416.744v0c-0.271-230.053-186.692-416.474-416.719-416.744h-0.025zM512 574.928c-39.456 0-71.442-31.986-71.442-71.442v0-281.719c-0.455-3.028-0.714-6.523-0.714-10.078 0-39.456 31.986-71.442 71.442-71.442s71.442 31.986 71.442 71.442c0 3.555-0.26 7.050-0.761 10.466l0.047-0.388v282.433c-0.391 38.654-31.42 69.933-69.939 70.726l-0.074 0.001zM591.539 689.95c0-43.928-35.611-79.539-79.539-79.539s-79.539 35.611-79.539 79.539c0 43.928 35.611 79.539 79.539 79.539s79.539-35.611 79.539-79.539z" />
<glyph unicode="&#xe926;" glyph-name="info" d="M512 960c-282.77 0-512-229.23-512-512s229.23-512 512-512c282.77 0 512 229.23 512 512v0c-0.271 282.661-229.339 511.729-511.974 512h-0.026zM583.442 221.767c0.455-3.028 0.714-6.523 0.714-10.078 0-39.456-31.986-71.442-71.442-71.442s-71.442 31.986-71.442 71.442c0 3.555 0.26 7.050 0.761 10.466l-0.047-0.388v282.433c-0.455 3.028-0.714 6.523-0.714 10.078 0 39.456 31.986 71.442 71.442 71.442s71.442-31.986 71.442-71.442c0-3.555-0.26-7.050-0.761-10.466l0.047 0.388zM512 610.887c-43.928 0-79.539 35.611-79.539 79.539s35.611 79.539 79.539 79.539c43.928 0 79.539-35.611 79.539-79.539v0c0.001-0.142 0.001-0.309 0.001-0.477 0-43.976-35.582-79.642-79.527-79.776h-0.013z" />
<glyph unicode="&#xe927;" glyph-name="lines" d="M116.965 726.071h794.482c29.251 0 52.965 23.714 52.965 52.965s-23.714 52.965-52.965 52.965v0h-794.482c-29.251 0-52.965-23.714-52.965-52.965s23.714-52.965 52.965-52.965v0zM911.447 500.965h-794.482c-29.251 0-52.965-23.714-52.965-52.965s23.714-52.965 52.965-52.965v0h794.482c29.251 0 52.965 23.714 52.965 52.965s-23.714 52.965-52.965 52.965v0zM911.447 169.929h-794.482c-29.251 0-52.965-23.714-52.965-52.965s23.714-52.965 52.965-52.965v0h794.482c29.251 0 52.965 23.714 52.965 52.965s-23.714 52.965-52.965 52.965v0z" />
<glyph unicode="&#xe928;" glyph-name="lock-o" horiz-adv-x="842" d="M725.702 596.817c1.106 10.071 1.749 21.777 1.772 33.628v0.033c0 181.813-137.522 329.522-306.713 329.522s-306.713-147.709-306.713-329.522c0.022-11.884 0.665-23.59 1.898-35.119l-0.126 1.458c-66.935-17.918-115.478-77.873-115.82-149.22v-357.465c0-85.614 69.404-155.017 155.017-155.017v0h531.488c85.614 0 155.017 69.404 155.017 155.017v0 357.426c-0.343 71.387-48.885 131.341-114.736 149.012l-1.084 0.248zM420.761 871.419c120.249 0 218.131-108.069 218.131-240.941-0.070-10.224-0.712-20.218-1.895-30.046l0.123 1.257h-432.72c-1.060 8.57-1.701 18.564-1.771 28.694l-0.001 0.095c0 132.872 97.882 240.941 218.131 240.941zM752.941 90.131c0-36.692-29.744-66.436-66.436-66.436v0h-531.488c-36.692 0-66.436 29.744-66.436 66.436v0 357.426c0 36.692 29.744 66.436 66.436 66.436v0h531.488c36.692 0 66.436-29.744 66.436-66.436v0zM409.246 435.156c-62.24-0.018-112.688-50.477-112.688-112.72 0-46.238 27.84-85.973 67.671-103.358l0.726-0.282v-78.173c0-24.461 19.83-44.291 44.291-44.291s44.291 19.83 44.291 44.291v0 78.173c40.558 17.667 68.398 57.403 68.398 103.64 0 62.242-50.448 112.702-112.687 112.72h-0.002z" />
<glyph unicode="&#xe929;" glyph-name="lock" horiz-adv-x="842" d="M725.924 596.817q1.55 16.609 1.55 33.882c0 181.592-137.522 329.301-306.713 329.301s-306.713-147.709-306.713-329.522q0-17.052 1.55-33.882c-66.77-17.981-115.179-77.798-115.598-148.99v-357.474c0-85.614 69.404-155.017 155.017-155.017v0h531.488c85.614 0 155.017 69.404 155.017 155.017v0 357.426c-0.315 71.33-48.757 131.259-114.514 149.010l-1.085 0.249zM453.536 218.796v-78.173c0-24.461-19.83-44.291-44.291-44.291s-44.291 19.83-44.291 44.291v0 78.173c-40.575 17.66-68.429 57.404-68.429 103.654 0 62.253 50.466 112.72 112.72 112.72s112.72-50.466 112.72-112.72c0-46.25-27.854-85.994-67.703-103.371l-0.727-0.282zM637.121 601.689h-432.72c-1.055 8.564-1.696 18.558-1.771 28.686l-0.001 0.103c0 132.872 97.882 240.941 218.131 240.941s218.131-108.069 218.131-240.941c-0.075-10.231-0.717-20.225-1.895-30.053l0.123 1.264z" />
<glyph unicode="&#xe92a;" glyph-name="map-marker-o" horiz-adv-x="760" d="M758.826 635.629c-1.216 5.271-2.23 10.339-3.244 15.61-2.885 16.214-6.19 29.866-10.218 43.204l0.69-2.657c-46.020 145.967-148.603 234.764-304.098 263.552l-4.46 1.014-5.676 1.825c-3.575 1.151-7.689 1.817-11.958 1.825h-79.88c-1.338 0.157-2.889 0.246-4.46 0.246s-3.122-0.089-4.647-0.263l0.186 0.017-15.205-3.244c-12.164-2.636-24.936-5.068-37.911-9.123-154.279-47.439-246.117-147.184-272.877-297.611-0.479-2.151-1.037-3.981-1.715-5.752l0.094 0.278-1.825-6.082c-1.029-3.4-1.622-7.307-1.622-11.353v0-52.305c-0.143-1.277-0.224-2.758-0.224-4.257s0.081-2.98 0.24-4.438l-0.016 0.18c49.467-228.276 189.352-410.33 324.371-586.504l12.164-15.813c2.995-3.685 6.045-6.992 9.287-10.1l0.039-0.037 5.676-5.676c7.364-7.714 17.712-12.524 29.185-12.569h4.468c12.3 0.779 23.020 6.932 29.93 16.115l0.075 0.104 34.87 46.223c129.14 171.106 263.552 347.888 309.775 567.65 0.143 1.277 0.224 2.758 0.224 4.257s-0.081 2.98-0.24 4.438l0.016-0.18v53.116c-0.055 2.975-0.421 5.835-1.068 8.587l0.054-0.275zM677.734 579.269c-43.182-200.705-164.821-361.674-292.542-531.564l-4.055-5.271c-132.181 170.7-254.834 333.9-300.044 537.443v40.546c1.426 4.147 2.761 9.257 3.741 14.491l0.111 0.713c21.287 119.612 92.040 196.042 216.518 233.345 9.528 2.838 20.273 5.068 31.018 7.298l12.164 2.636h68.726c3.574-1.317 7.989-2.575 12.516-3.532l0.662-0.117c126.099-23.111 205.368-91.229 242.468-208.003 2.466-8.26 4.932-18.923 6.829-29.781l0.267-1.845 2.636-12.975zM374.649 762.133c-100.769 0-182.459-81.69-182.459-182.459s81.69-182.459 182.459-182.459c100.769 0 182.459 81.69 182.459 182.459v0c0 100.769-81.69 182.459-182.459 182.459v0zM374.649 478.308c-55.983 0-101.366 45.383-101.366 101.366s45.383 101.366 101.366 101.366c55.983 0 101.366-45.383 101.366-101.366v0c0-55.983-45.383-101.366-101.366-101.366v0z" />
<glyph unicode="&#xe92b;" glyph-name="map-marker" horiz-adv-x="760" d="M758.826 635.629c-1.216 5.271-2.23 10.339-3.244 15.61-2.885 16.214-6.19 29.866-10.218 43.204l0.69-2.657c-46.020 145.967-148.603 234.764-304.098 263.552l-4.46 1.014-5.676 1.825c-3.575 1.151-7.689 1.817-11.958 1.825h-79.88c-1.338 0.157-2.889 0.246-4.46 0.246s-3.122-0.089-4.647-0.263l0.186 0.017-15.205-3.244c-12.164-2.636-24.936-5.068-37.911-9.123-154.279-47.439-246.117-147.184-272.877-297.611-0.479-2.151-1.037-3.981-1.715-5.752l0.094 0.278-1.825-6.082c-1.029-3.4-1.622-7.307-1.622-11.353v0-52.305c-0.143-1.277-0.224-2.758-0.224-4.257s0.081-2.98 0.24-4.438l-0.016 0.18c49.467-228.276 189.352-410.33 324.371-586.504l12.164-15.813c2.995-3.685 6.045-6.992 9.287-10.1l0.039-0.037 5.676-5.676c7.364-7.714 17.712-12.524 29.185-12.569h4.468c12.3 0.779 23.020 6.932 29.93 16.115l0.075 0.104 34.87 46.223c129.14 171.106 263.552 347.888 309.775 567.65 0.143 1.277 0.224 2.758 0.224 4.257s-0.081 2.98-0.24 4.438l0.016-0.18v53.116c-0.055 2.975-0.421 5.835-1.068 8.587l0.054-0.275zM373.635 396.81c-100.769 0-182.459 81.69-182.459 182.459s81.69 182.459 182.459 182.459c100.769 0 182.459-81.69 182.459-182.459v0c-0.228-100.24-81.254-181.479-181.39-182.053h-0.055z" />
<glyph unicode="&#xe92c;" glyph-name="minus" d="M907.029 395.765h-783.528c-28.849 0-52.235 23.386-52.235 52.235s23.386 52.235 52.235 52.235v0h783.528c28.849 0 52.235-23.386 52.235-52.235s-23.386-52.235-52.235-52.235v0z" />
<glyph unicode="&#xe92d;" glyph-name="noon" horiz-adv-x="1019" d="M576.382 784.668l85.249 149.885c-40.064 15.911-86.476 25.231-135.037 25.447h-0.088c-28.832-0.174-56.848-3.224-83.909-8.875l2.732 0.477-109.678-190.091c40.943 22.628 89.76 35.945 141.687 35.945 2.167 0 4.328-0.023 6.483-0.069l-0.322 0.005c0.22 0.001 0.48 0.001 0.741 0.001 32.807 0 64.528-4.647 94.542-13.318l-2.401 0.594zM822.203 848.032l-84.231-147.594c72.98-62.477 119.029-154.592 119.348-257.471v-0.056c-1.514-192.66-158.046-348.257-350.918-348.257-193.813 0-350.929 157.116-350.929 350.929 0 0.94 0.004 1.878 0.011 2.816l-0.001-0.144c0 0.158 0 0.344 0 0.53 0 24.11 2.316 47.679 6.736 70.497l-0.374-2.319-161.845-93.137c0-274.577 233.352-487.825 504.62-487.825 0.532-0.002 1.162-0.003 1.792-0.003 281.749 0 510.37 227.464 512.243 508.772l0.001 0.178c-1.631 162.841-77.55 307.624-195.433 402.293l-1.020 0.792z" />
<glyph unicode="&#xe92e;" glyph-name="notepad" horiz-adv-x="814" d="M652.9 873.091h-25.638c-10.995 50.025-54.94 86.909-107.5 86.909-0.017 0-0.035 0-0.052 0h-213.792c-0.015 0-0.032 0-0.049 0-52.56 0-96.505-36.883-107.365-86.18l-0.135-0.729h-36.936c-89.183-0.124-161.433-72.449-161.433-161.65 0-0.076 0-0.153 0-0.229v0.012-614.009c0.124-89.107 72.326-161.309 161.421-161.433h491.48c89.107 0.124 161.309 72.326 161.433 161.421v614.021c0 0.064 0 0.141 0 0.217 0 89.2-72.249 161.526-161.421 161.65h-0.012zM283.539 851.364c0.796 11.891 10.423 21.292 22.338 21.726l0.041 0.001h213.795c0.065 0.001 0.142 0.001 0.218 0.001 12.763 0 23.125-10.286 23.247-23.020v-67.366c-0.242-12.577-10.435-22.694-23.019-22.813h-214.241c-0.066-0.001-0.144-0.001-0.221-0.001-12.687 0-23.001 10.163-23.244 22.792v0.023zM727.425 97.215c0-41.159-33.366-74.524-74.524-74.524v0h-491.468c-41.159 0-74.524 33.366-74.524 74.524v0 614.009c-0.001 0.129-0.001 0.282-0.001 0.435 0 41.159 33.366 74.524 74.524 74.524 0 0 0.001 0 0.001 0h34.112v-3.042c0.124-60.624 49.298-109.722 109.939-109.722 0 0 0 0 0 0h213.795c0.259-0.002 0.565-0.003 0.871-0.003 60.49 0 109.57 48.853 109.937 109.256v3.511h23.465c41.159 0 74.524-33.366 74.524-74.524v0zM586.633 574.778h-347.634c-23.999 0-43.454-19.455-43.454-43.454s19.455-43.454 43.454-43.454v0h347.634c23.999 0 43.454 19.455 43.454 43.454s-19.455 43.454-43.454 43.454v0zM586.633 390.097h-347.634c-23.999 0-43.454-19.455-43.454-43.454s19.455-43.454 43.454-43.454v0h347.634c23.999 0 43.454 19.455 43.454 43.454s-19.455 43.454-43.454 43.454v0zM586.633 205.199h-347.634c-23.999 0-43.454-19.455-43.454-43.454s19.455-43.454 43.454-43.454v0h347.634c23.999 0 43.454 19.455 43.454 43.454s-19.455 43.454-43.454 43.454v0z" />
<glyph unicode="&#xe92f;" glyph-name="phone-o" horiz-adv-x="815" d="M583.711-64.445c-10.244 0-19.821 0-29.174 0h-22.271c-3.338 0.043-6.559 0.447-9.655 1.173l0.302-0.060-8.24 1.782-4.9 1.559-6.904 2.227c-9.929 2.864-18.498 6.351-26.598 10.611l0.765-0.366-3.118 5.345c-26.279 14.030-53.449 28.729-79.729 44.541-47.246 28.074-88.163 58.997-125.314 93.886l0.376-0.35c-56.383 56.477-105.661 120.075-146.359 189.322l-2.408 4.432c-36.125 56.875-66.834 122.392-88.791 191.799l-1.628 5.963c-14.372 52.919-24.534 114.717-28.38 178.219l-0.127 2.618v2.227c-0.908 9.022-1.426 19.497-1.426 30.094 0 14.754 1.004 29.273 2.947 43.492l-0.185-1.653c12.674 75.498 53.283 139.743 110.624 182.983l0.729 0.527c23.766 20.84 54.999 33.683 89.224 34.073l0.081 0.001h55.454c0.037 0 0.080 0 0.124 0 3.509 0 6.924-0.406 10.199-1.173l-0.301 0.059 18.485-4.231c6.399-1.583 11.994-4.356 16.804-8.093l-0.101 0.075c17.393-14.429 29.809-34.32 34.624-57.018l0.118-0.662 14.253-49.663c7.349-25.611 14.476-51 22.271-76.388 2.004-6.458 4.231-12.694 6.681-18.93s6.013-16.035 8.463-24.275c3.048-7.829 4.814-16.892 4.814-26.367 0-27.39-14.759-51.332-36.759-64.307l-0.348-0.19c-14.699-9.576-29.62-17.816-44.541-25.611l-14.030-7.795-20.712-11.358-17.148-9.354 3.341-10.69c8.463-27.838 16.258-54.117 26.057-79.951 31.324-79.208 78.349-146.261 137.636-200.040l0.442-0.395 7.795-7.349 23.829-22.271 15.812 11.358 24.275 17.371 9.354 6.458c13.14 9.354 26.725 18.93 41.646 27.393 11.619 7.788 25.918 12.43 41.3 12.43 21.791 0 41.407-9.315 55.083-24.18l0.048-0.053 68.148-64.362 40.532-37.637 9.799-8.908c7.891-7.112 15.159-14.38 22.037-22.007l0.234-0.263c6.237-7.198 11.597-15.41 15.761-24.294l0.274-0.649 2.672-5.122c3.663-6.329 5.825-13.923 5.825-22.022 0-3.563-0.418-7.029-1.209-10.35l0.061 0.303-4.677-20.489c-0.821-3.406-1.89-6.374-3.237-9.184l0.119 0.276-4.009-8.463c-2.895-6.013-5.79-12.026-8.463-18.039-16.025-41.943-48.406-74.542-89.136-90.498l-1.060-0.366-8.686-2.895c-22.16-8.9-48.447-16.606-75.617-21.827l-2.775-0.444c-9.001-1.279-19.398-2.009-29.965-2.009-0.505 0-1.009 0.002-1.513 0.005h0.077zM539.17 26.196h20.043c6.676-0.674 14.429-1.059 22.271-1.059s15.594 0.385 23.239 1.136l-0.968-0.077c24.033 4.456 45.106 10.47 65.32 18.219l-2.517-0.848 8.908 2.895c15.144 5.122 26.057 17.594 37.415 42.982 2.895 6.681 6.236 13.362 9.354 19.821l1.559 3.341c-4.231 4.454-9.576 9.131-14.921 13.808l-11.803 10.69-40.31 38.083-65.030 61.021c-9.799-6.013-19.375-12.917-29.62-20.043l-9.799-6.904-22.271-16.48-23.829-17.148c-12.496-9.708-28.406-15.563-45.683-15.563-19.93 0-38.040 7.791-51.451 20.495l0.034-0.032c-10.913 9.576-22.271 19.598-32.292 29.62l-7.795 7.349c-69.683 63.521-124.471 142.134-159.342 230.766l-1.452 4.188c-10.69 28.506-19.598 57.681-28.061 85.742l-6.236 20.934c-2.409 6.971-3.8 15.005-3.8 23.363 0 28.528 16.205 53.271 39.912 65.526l0.412 0.193 26.725 14.699 19.598 10.69 14.921 8.24c11.135 6.013 22.271 11.803 31.847 18.039-1.559 4.454-3.118 8.908-4.9 13.14-3.118 8.24-6.236 16.48-8.686 24.943-7.572 25.834-14.921 51.445-22.271 77.279l-14.253 48.995-2.004 6.681h-47.659c-12.775-0.272-24.324-5.305-32.99-13.389l0.029 0.027c-41.038-30.079-69.959-74.596-79.32-125.939l-0.186-1.226c-1.767-10.739-2.777-23.115-2.777-35.726 0-5.609 0.2-11.172 0.593-16.682l-0.042 0.74v-2.45c3.483-59.888 12.538-115.924 26.722-169.881l-1.334 5.97c21.157-67.894 48.77-126.925 83.122-181.272l-1.834 3.108c38.67-67.179 82.955-125.151 133.73-176.714l-0.107 0.109c32.256-30.041 68.137-56.991 106.688-79.922l2.883-1.588c23.829-14.921 48.55-28.061 74.829-42.314l3.786-2.004c2.708-1.221 6.037-2.434 9.46-3.424l0.561-0.139 7.572-2.45zM259.007 584.964v0z" />
<glyph unicode="&#xe930;" glyph-name="phone" horiz-adv-x="815" d="M808.866 141.112l-2.672 5.122c-4.422 9.536-9.784 17.749-16.144 25.072l0.109-0.129c-7.113 7.889-14.382 15.157-22.007 22.037l-0.263 0.234-10.69 9.354-40.978 38.751-66.812 63.694c-13.724 14.918-33.34 24.233-55.131 24.233-15.383 0-29.681-4.642-41.571-12.6l0.271 0.171c-14.921-8.686-28.506-18.262-41.646-27.393l-9.354-6.458-24.275-17.371-15.812-11.358-23.384 22.271-8.24 7.795c-59.722 54.179-106.745 121.23-136.824 196.861l-1.254 3.574c-9.799 25.834-17.594 52.113-26.057 80.174l-3.118 10.467 17.148 9.354 20.712 11.358 13.14 7.349c14.476 7.795 29.62 16.035 44.541 25.611 22.347 13.165 37.107 37.108 37.107 64.497 0 9.475-1.766 18.538-4.988 26.876l0.173-0.51c-2.45 8.24-5.568 16.258-8.463 24.275s-4.677 12.472-6.681 18.93c-7.572 25.388-14.921 51-22.271 76.388l-14.253 49.663c-5.109 23.208-17.577 42.929-34.79 57.095l-0.175 0.14c-4.709 3.662-10.304 6.434-16.396 7.953l-0.307 0.065-18.485 4.231c-2.974 0.708-6.389 1.114-9.898 1.114-0.043 0-0.087 0-0.13 0h-55.447c-34.226-0.448-65.371-13.281-89.24-34.21l0.158 0.136c-58.053-43.781-98.656-108.019-111.117-181.82l-0.236-1.689c-1.934-13.145-3.039-28.32-3.039-43.752 0-9.922 0.457-19.737 1.35-29.426l-0.093 1.244v-2.672c3.968-66.037 14.13-127.757 29.991-187.149l-1.485 6.535c23.663-75.289 54.442-140.726 92.674-200.968l-2.033 3.428c43.076-73.944 92.361-137.764 148.801-194.456l-0.033 0.034c36.76-34.28 77.678-64.989 121.664-91.071l3.274-1.797c26.279-16.258 53.449-30.956 79.729-44.541l3.563-2.004c7.341-3.904 15.911-7.392 24.856-10l0.977-0.244 6.904-2.227 4.9-1.336 8.24-1.782c2.795-0.667 6.016-1.070 9.324-1.113h22.301c9.131 0 18.93 0 29.174 0 0.676-0.007 1.475-0.012 2.275-0.012 10.585 0 21 0.733 31.195 2.15l-1.178-0.134c29.941 5.658 56.228 13.364 81.383 23.313l-2.991-1.043 8.686 2.895c41.88 16.271 74.345 48.882 90.058 89.797l0.36 1.067c2.672 6.013 5.568 12.026 8.24 17.816l4.231 8.686c1.24 2.54 2.309 5.509 3.056 8.604l0.062 0.304 4.677 20.489c0.27 1.844 0.425 3.972 0.425 6.136 0 8.060-2.141 15.619-5.884 22.142l0.115-0.217z" />
<glyph unicode="&#xe931;" glyph-name="plus" d="M971.121 500.747h-406.374v406.374c0 29.204-23.675 52.879-52.879 52.879s-52.879-23.675-52.879-52.879v0-406.374h-406.11c-29.204 0-52.879-23.675-52.879-52.879s23.675-52.879 52.879-52.879v0h406.11v-406.11c0-29.204 23.675-52.879 52.879-52.879s52.879 23.675 52.879 52.879v0 406.11h406.374c29.204 0 52.879 23.675 52.879 52.879s-23.675 52.879-52.879 52.879v0z" />
<glyph unicode="&#xe932;" glyph-name="power" horiz-adv-x="922" d="M720.128 777.472c-8.522 6.571-19.351 10.532-31.105 10.532-28.277 0-51.2-22.923-51.2-51.2 0-18.486 9.797-34.683 24.482-43.684l0.223-0.127c95.357-65.377 157.104-173.743 157.104-296.531 0-197.939-160.461-358.4-358.4-358.4s-358.4 160.461-358.4 358.4c0 112.785 52.097 213.402 133.539 279.1l0.685 0.535c13.908 9.301 22.943 24.944 22.943 42.696 0 28.277-22.923 51.2-51.2 51.2-14.037 0-26.754-5.649-36.004-14.797l0.005 0.005c-105.499-85.157-172.415-214.465-172.415-359.403 0-254.493 206.307-460.8 460.8-460.8s460.8 206.307 460.8 460.8c0 157.813-79.332 297.097-200.292 380.148l-1.565 1.015zM460.8 493.568c28.277 0 51.2 22.923 51.2 51.2v0 364.032c0 28.277-22.923 51.2-51.2 51.2s-51.2-22.923-51.2-51.2v0-364.032c0-28.277 22.923-51.2 51.2-51.2v0z" />
<glyph unicode="&#xe933;" glyph-name="radio-checked" d="M512 960c-282.77 0-512-229.23-512-512s229.23-512 512-512c282.77 0 512 229.23 512 512v0c-0.271 282.661-229.339 511.729-511.974 512h-0.026zM751.568 553.258l-277.433-277.433c-8.583-8.633-20.449-13.993-33.567-14.050h-1.678c-13.626 0.581-25.693 6.803-34.004 16.373l-0.050 0.059-99.066 113.593c-6.019 7.89-9.644 17.889-9.644 28.734 0 26.304 21.324 47.628 47.628 47.628 13.043 0 24.862-5.243 33.463-13.736l-0.005 0.005 65.488-75.252 241.473 241.473c8.624 8.624 20.537 13.958 33.697 13.958 26.319 0 47.654-21.336 47.654-47.654 0-13.159-5.334-25.073-13.958-33.697v0z" />
<glyph unicode="&#xe934;" glyph-name="radio-unchecked" d="M512 960c-282.77 0-512-229.23-512-512s229.23-512 512-512c282.77 0 512 229.23 512 512v0c-0.271 282.661-229.339 511.729-511.974 512h-0.026zM512 31.256c-230.161 0-416.744 186.583-416.744 416.744s186.583 416.744 416.744 416.744c230.161 0 416.744-186.583 416.744-416.744v0c-0.271-230.053-186.692-416.474-416.719-416.744h-0.025z" />
<glyph unicode="&#xe935;" glyph-name="dots" d="M258.666 448c0-48.602-39.396-88-88-88s-88 39.398-88 88c0 48.604 39.396 88 88 88s88-39.396 88-88zM610.668 448c0-48.602-39.396-88-88-88s-88 39.398-88 88c0 48.604 39.396 88 88 88s88-39.396 88-88zM962.668 448c0-48.602-39.396-88-88-88s-88 39.398-88 88c0 48.604 39.396 88 88 88s88-39.396 88-88z" />
<glyph unicode="&#xe936;" glyph-name="search" horiz-adv-x="949" d="M934.859 29.346l-236.308 265.18-4.205 3.644c62.040 69.794 99.939 162.249 99.939 263.556 0 219.528-177.962 397.49-397.49 397.49-211.265 0-384.034-164.817-396.741-372.884l-0.055-1.117c-0.448-7.067-0.704-15.325-0.704-23.643 0-211.492 165.172-384.406 373.556-396.782l1.091-0.052h23.547c0.217 0 0.473-0.001 0.73-0.001 78.405 0 151.44 22.993 212.73 62.603l-1.54-0.932c1.55-2.552 3.122-4.749 4.84-6.82l-0.075 0.093 236.308-265.18c10.343-11.626 25.344-18.914 42.048-18.914 31.036 0 56.196 25.16 56.196 56.196 0 14.333-5.366 27.412-14.198 37.339l0.050-0.057zM381.232 277.427c-152.417 6.534-273.509 131.684-273.509 285.117 0 157.602 127.761 285.363 285.363 285.363 1.548 0 3.094-0.012 4.636-0.037l-0.232 0.003h16.539c151.242-7.926 270.874-132.49 270.874-284.995 0-84.911-37.086-161.161-95.944-213.434l-0.293-0.256c-49.86-44.901-116.194-72.366-188.943-72.366-6.506 0-12.962 0.22-19.358 0.652l0.866-0.047z" />
<glyph unicode="&#xe937;" glyph-name="share" horiz-adv-x="803" d="M646.095 250.27c-0.028 0-0.061 0-0.094 0-35.898 0-68.97-12.104-95.356-32.453l0.364 0.27-247.223 183.832c6.665 16.626 10.53 35.9 10.53 56.076s-3.866 39.45-10.897 57.12l0.367-1.044 234.789 174.568c28.319-26.787 66.639-43.255 108.806-43.255 87.524 0 158.476 70.952 158.476 158.476s-70.952 158.476-158.476 158.476c-87.524 0-158.476-70.952-158.476-158.476 0-10.136 0.952-20.049 2.77-29.656l-0.155 0.987-249.173-185.295c-24.164 15.896-53.791 25.356-85.627 25.356-86.851 0-157.257-70.406-157.257-157.257s70.406-157.257 157.257-157.257c31.836 0 61.463 9.46 86.222 25.723l-0.595-0.367 253.074-187.977c-4.147-13.428-6.535-28.866-6.535-44.861 0-86.851 70.406-157.257 157.257-157.257s157.257 70.406 157.257 157.257c0 86.851-70.406 157.257-157.257 157.257-0.017 0-0.034 0-0.051 0h0.003z" />
<glyph unicode="&#xe938;" glyph-name="filter" horiz-adv-x="969" d="M934.406 899.204c-7.951 17.132-25.008 28.8-44.793 28.8-0.003 0-0.007 0-0.010 0h-810.098c-27.176-0.019-49.2-22.053-49.2-49.233 0-12.362 4.556-23.661 12.083-32.307l-0.050 0.059 295.385-340.188v-489.111c0-0.030 0-0.064 0-0.097 0-27.19 22.043-49.233 49.233-49.233 9.67 0 18.689 2.789 26.295 7.601l-0.203-0.119 196.923 123.078c13.987 8.846 23.137 24.226 23.137 41.747 0 0.033 0 0.070 0 0.103v-0.006 366.033l295.385 340.188c6.822 8.38 10.954 19.188 10.954 30.962 0 7.906-1.864 15.38-5.178 21.998l0.129-0.283zM545.729 557.048c-7.484-8.583-12.052-19.882-12.062-32.246v-357.175l-98.462-61.537v418.463c0.013 0.403 0.020 0.879 0.020 1.356 0 11.851-4.187 22.724-11.164 31.222l0.069-0.088-236.803 272.494h594.464z" />
<glyph unicode="&#xe939;" glyph-name="star-o" horiz-adv-x="1069" d="M1065.402 574.338c-8.858 26.569-31.702 46.144-59.575 50.137l-0.395 0.046-279.273 40.9-123.954 253.177c-12.912 23.972-37.832 39.991-66.494 39.991s-53.581-16.018-66.296-39.591l-0.197-0.4-125.459-253.177-280.276-40.649c-35.225-6.74-61.485-37.304-61.485-74.002 0-19.921 7.738-38.034 20.372-51.498l-0.038 0.040 203.495-198.226-48.929-278.269c-0.486-3.214-0.764-6.922-0.764-10.695 0-41.574 33.702-75.276 75.276-75.276 12.062 0 23.462 2.837 33.568 7.881l-0.436-0.197 250.919 131.481 250.919-131.481c9.67-4.846 21.070-7.684 33.132-7.684 41.574 0 75.276 33.702 75.276 75.276 0 3.773-0.278 7.481-0.813 11.105l0.050-0.41-47.675 278.269 202.241 197.222c12.983 13.285 20.994 31.479 20.994 51.543 0 8.775-1.532 17.193-4.344 25l0.162-0.514zM764.299 363.315c-13.79-13.65-22.329-32.581-22.329-53.508 0-4.32 0.364-8.556 1.063-12.677l-0.062 0.444 41.151-239.628-215.288 113.164c-10.022 5.276-21.9 8.372-34.501 8.372s-24.479-3.096-34.915-8.57l0.413 0.198-215.288-113.164 41.653 239.878c0.637 3.678 1.001 7.913 1.001 12.233 0 20.926-8.539 39.858-22.322 53.501l-0.006 0.006-174.389 169.872 240.631 34.878c24.381 3.948 44.538 19.136 55.255 39.975l0.198 0.423 107.895 217.798 107.644-217.798c10.953-21.48 31.33-36.802 55.53-40.594l0.425-0.055 240.38-34.627z" />
<glyph unicode="&#xe93a;" glyph-name="star" horiz-adv-x="1069" d="M1065.402 574.338c-8.858 26.569-31.702 46.144-59.575 50.137l-0.395 0.046-279.273 40.9-123.954 253.177c-12.912 23.972-37.832 39.991-66.494 39.991s-53.581-16.018-66.296-39.591l-0.197-0.4-125.459-253.177-280.276-40.649c-35.225-6.74-61.485-37.304-61.485-74.002 0-19.921 7.738-38.034 20.372-51.498l-0.038 0.040 203.495-198.226-48.929-278.269c-0.486-3.214-0.764-6.922-0.764-10.695 0-41.574 33.702-75.276 75.276-75.276 12.062 0 23.462 2.837 33.568 7.881l-0.436-0.197 250.919 131.481 250.919-131.481c9.67-4.846 21.070-7.684 33.132-7.684 41.574 0 75.276 33.702 75.276 75.276 0 3.773-0.278 7.481-0.813 11.105l0.050-0.41-47.675 278.269 202.241 197.222c12.983 13.285 20.994 31.479 20.994 51.543 0 8.775-1.532 17.193-4.344 25l0.162-0.514z" />
<glyph unicode="&#xe93b;" glyph-name="timer" horiz-adv-x="780" d="M410.088 273.92c-2.168 2.015-5.085 3.252-8.29 3.252s-6.121-1.237-8.297-3.259l0.008 0.007-36.571-34.377c-33.768-31.644-54.819-76.506-54.857-126.286v-0.007c0-6.733 5.458-12.19 12.19-12.19v0h175.055c6.733 0 12.19 5.458 12.19 12.19v0c-0.038 49.787-21.089 94.65-54.762 126.205l-0.095 0.088zM432.274 622.811c22.831 21.37 37.058 51.69 37.059 85.333v0c-0.134 4.474-3.792 8.049-8.286 8.049-0.087 0-0.174-0.001-0.26-0.004h-117.991c-4.578 0-8.29-3.711-8.29-8.29v0c0.001-33.643 14.228-63.963 36.994-85.273l0.065-0.060 24.381-23.162c1.471-1.354 3.442-2.185 5.608-2.185s4.137 0.83 5.613 2.19l-0.006-0.005zM731.429 33.524h-24.381c-1.479 131.267-57.329 249.204-146.043 332.574l-0.243 0.226-87.528 81.676 87.528 81.676c88.957 83.596 144.807 201.533 146.283 332.53l0.002 0.27h24.381c26.93 0 48.762 21.831 48.762 48.762s-21.831 48.762-48.762 48.762v0h-682.667c-26.93 0-48.762-21.831-48.762-48.762s21.831-48.762 48.762-48.762v0h48.762c1.479-131.267 57.329-249.204 146.043-332.574l0.243-0.226 86.796-81.676-86.796-81.676c-88.957-83.596-144.807-201.533-146.283-332.53l-0.002-0.27h-48.762c-26.93 0-48.762-21.831-48.762-48.762s21.831-48.762 48.762-48.762v0h682.667c26.93 0 48.762 21.831 48.762 48.762s-21.831 48.762-48.762 48.762v0zM195.048 862.476h414.476c-1.381-103.162-45.264-195.809-114.896-261.437l-0.182-0.17-91.672-86.065-91.672 86.065c-70.176 65.664-114.401 158.313-116.050 261.307l-0.004 0.3zM195.048 33.524c1.381 103.162 45.264 195.809 114.896 261.437l0.182 0.17 91.672 86.065 91.672-86.065c70.176-65.664 114.401-158.313 116.050-261.307l0.004-0.3z" />
<glyph unicode="&#xe93c;" glyph-name="book" horiz-adv-x="902" d="M716.562 960h-458.18c-102.221-0.136-185.034-83.033-185.034-185.272v0-34.768h-25.719c-26.304 0-47.628-21.324-47.628-47.628s21.324-47.628 47.628-47.628v0h25.719v-160.982h-25.719c-26.304 0-47.628-21.324-47.628-47.628s21.324-47.628 47.628-47.628v0h25.719v-161.459h-25.719c-26.304 0-47.628-21.324-47.628-47.628s21.324-47.628 47.628-47.628v0h25.719v-10.478c0-102.24 82.814-185.137 185.022-185.273h458.193c102.323 0 185.273 82.949 185.273 185.273v0 653.455c0 102.323-82.949 185.273-185.273 185.273v0zM806.579 121.273c0-49.715-40.302-90.017-90.017-90.017h-458.18c-49.715 0-90.017 40.302-90.017 90.017v0 10.478h25.957c26.304 0 47.628 21.324 47.628 47.628s-21.324 47.628-47.628 47.628v0h-25.719v161.459h25.719c26.304 0 47.628 21.324 47.628 47.628s-21.324 47.628-47.628 47.628v0h-25.719v160.982h25.719c26.304 0 47.628 21.324 47.628 47.628s-21.324 47.628-47.628 47.628v0h-25.719v34.768c0 0 0 0 0 0 0 49.631 40.166 89.881 89.766 90.016h458.193c49.715 0 90.017-40.302 90.017-90.017v0zM654.646 397.753h-293.388c-26.304 0-47.628-21.324-47.628-47.628s21.324-47.628 47.628-47.628v0h293.388c26.304 0 47.628 21.324 47.628 47.628s-21.324 47.628-47.628 47.628v0zM654.646 226.768h-293.388c-26.304 0-47.628-21.324-47.628-47.628s21.324-47.628 47.628-47.628v0h293.388c26.304 0 47.628 21.324 47.628 47.628s-21.324 47.628-47.628 47.628v0zM507.952 449.191c100.379 0.136 181.7 81.54 181.7 181.938 0 100.482-81.457 181.939-181.939 181.939s-181.939-81.457-181.939-181.939v0c0.136-100.511 81.647-181.939 182.177-181.939 0 0 0 0 0 0v0zM507.952 718.050c47.771-0.135 86.445-38.893 86.445-86.682 0-47.874-38.809-86.683-86.683-86.683s-86.683 38.809-86.683 86.682v0c0.135 47.903 38.999 86.683 86.921 86.683 0 0 0 0 0 0v0z" />
<glyph unicode="&#xe93d;" glyph-name="broadcast" d="M85.333 735.573c-31.419 0-56.889-25.47-56.889-56.889s25.47-56.889 56.889-56.889v0c0.084 0 0.184 0 0.285 0 331.469 0 600.178-268.709 600.178-600.178 0-0.1 0-0.2 0-0.299v0.015c0-31.419 25.47-56.889 56.889-56.889s56.889 25.47 56.889 56.889v0c0 0.085 0 0.185 0 0.285 0 394.307-319.649 713.956-713.956 713.956-0.1 0-0.201 0-0.301 0h0.016zM85.333 960c-31.419 0-56.889-25.47-56.889-56.889s25.47-56.889 56.889-56.889v0c455.574 0 824.889-369.315 824.889-824.889v0c0-31.419 25.47-56.889 56.889-56.889s56.889 25.47 56.889 56.889v0c0 518.411-420.255 938.667-938.667 938.667v0zM85.333 493.796c-31.419 0-56.889-25.47-56.889-56.889s25.47-56.889 56.889-56.889v0c0.169 0 0.369 0 0.569 0 197.782 0 358.116-160.334 358.116-358.116 0-0.2 0-0.4 0-0.6v0.031c0-31.419 25.47-56.889 56.889-56.889s56.889 25.47 56.889 56.889v0c0 0.169 0 0.369 0 0.569 0 260.619-211.274 471.893-471.893 471.893-0.2 0-0.4 0-0.6 0h0.031zM319.147 95.573c0-88.13-71.443-159.573-159.573-159.573s-159.573 71.443-159.573 159.573c0 88.13 71.443 159.573 159.573 159.573s159.573-71.443 159.573-159.573z" />
<glyph unicode="&#xe93e;" glyph-name="help" d="M512 960c-282.77 0-512-229.23-512-512s229.23-512 512-512c282.77 0 512 229.23 512 512v0c-0.271 282.661-229.339 511.729-511.974 512h-0.026zM519.382 142.943h-1.905c-1.032-0.076-2.235-0.119-3.449-0.119-27.619 0-50.009 22.39-50.009 50.009s22.39 50.009 50.009 50.009c1.214 0 2.417-0.043 3.609-0.128l-0.16 0.009h1.905c26.095-1.859 46.56-23.484 46.56-49.89s-20.466-48.032-46.4-49.881l-0.16-0.009zM614.638 444.904l-11.669-6.668c-23.966-12.224-40.381-36.203-41.668-64.131l-0.006-0.167v-56.915c0-24.594-19.938-44.532-44.532-44.532s-44.532 19.938-44.532 44.532v0 57.153c0.533 61.628 35.109 115.060 85.817 142.456l0.866 0.428 11.669 6.668c24.431 11.702 41.003 36.232 41.003 64.633 0 5.108-0.536 10.092-1.555 14.896l0.083-0.467c-11.035 35.625-43.687 61.053-82.279 61.053-1.381 0-2.755-0.033-4.121-0.097l0.193 0.007h-7.144c-2.744 0.274-5.931 0.43-9.155 0.43-48.865 0-89.346-35.897-96.511-82.76l-0.068-0.543c-4.525-20.033-22.17-34.768-43.258-34.768-0.029 0-0.059 0-0.088 0h0.005c-0.122-0.001-0.265-0.002-0.409-0.002-24.463 0-44.294 19.831-44.294 44.294 0 3.119 0.322 6.164 0.936 9.101l-0.050-0.288c16.277 88.025 92.446 153.813 183.981 153.813 3.135 0 6.251-0.077 9.348-0.23l-0.436 0.017h11.669c80.128-0.623 147.422-54.847 167.835-128.553l0.291-1.233c2.645-10.884 4.161-23.38 4.161-36.23 0-61.408-34.64-114.726-85.446-141.479l-0.874-0.419z" />
<glyph unicode="&#xe93f;" glyph-name="help-o" d="M512 960c-282.77 0-512-229.23-512-512s229.23-512 512-512c282.77 0 512 229.23 512 512v0c-0.271 282.661-229.339 511.729-511.974 512h-0.026zM512 31.256c-230.161 0-416.744 186.583-416.744 416.744s186.583 416.744 416.744 416.744c230.161 0 416.744-186.583 416.744-416.744v0c-0.271-230.053-186.692-416.474-416.719-416.744h-0.025zM534.861 745.674h-10.954c-2.661 0.135-5.777 0.213-8.912 0.213-91.535 0-167.704-65.788-183.804-152.66l-0.177-1.152c-0.563-2.649-0.886-5.694-0.886-8.813 0-24.463 19.831-44.294 44.294-44.294 0.144 0 0.288 0.001 0.431 0.002h-0.022c0.025 0 0.054 0 0.084 0 21.087 0 38.733 14.736 43.201 34.472l0.056 0.296c7.233 47.405 47.714 83.303 96.579 83.303 3.223 0 6.41-0.156 9.554-0.461l-0.399 0.031h7.62c0.968 0.039 2.105 0.061 3.247 0.061 38.843 0 71.67-25.761 82.326-61.131l0.158-0.609c0.994-4.467 1.563-9.599 1.563-14.863 0-28.436-16.613-52.992-40.664-64.49l-0.431-0.185-11.669-6.668c-51.574-27.824-86.15-81.255-86.682-142.81l-0.001-0.074v-58.106c0-24.594 19.938-44.532 44.532-44.532s44.532 19.938 44.532 44.532v0 59.059c1.294 28.094 17.708 52.073 41.246 64.099l0.428 0.199 11.669 6.668c51.652 27.181 86.27 80.484 86.27 141.873 0 12.773-1.499 25.197-4.33 37.103l0.218-1.086c-20.704 75.346-88.502 129.819-169.056 130.024h-0.023zM525.812 235.58h-1.905c-26.095-1.859-46.56-23.484-46.56-49.89s20.466-48.032 46.4-49.881l0.16-0.009h1.905c26.095 1.859 46.56 23.484 46.56 49.89s-20.466 48.032-46.4 49.881l-0.16 0.009z" />
<glyph unicode="&#xe940;" glyph-name="user-sign-in" d="M1023.167-11.564c-25.302 188.065-152.199 341.241-322.807 403.925l-3.463 1.113c54.309 47.262 88.442 116.498 88.442 193.709 0 141.581-114.772 256.354-256.354 256.354s-256.354-114.772-256.354-256.354c0-77.208 34.133-146.447 88.133-193.442l0.309-0.262c-174.070-63.801-300.969-216.978-325.983-402.471l-0.284-2.57c-0.234-1.752-0.365-3.774-0.365-5.828 0-25.743 20.866-46.61 46.61-46.61 0.129 0 0.258 0.001 0.386 0.002h895.588c0.107-0.001 0.236-0.002 0.365-0.002 25.743 0 46.61 20.866 46.61 46.61 0 2.054-0.134 4.077-0.389 6.062l0.024-0.234zM367.135 584.11c0 90.095 73.036 163.136 163.136 163.136s163.136-73.036 163.136-163.136c0-90.095-73.036-163.136-163.136-163.136v0c-90.095 0-163.136 73.036-163.136 163.136v0zM137.813 29.221c47.755 174.372 204.805 300.4 391.288 300.4s343.532-126.028 390.623-297.554l0.666-2.843zM83.281 338.941l97.88 118.623c6.371 7.905 10.225 18.068 10.225 29.132s-3.854 21.227-10.295 29.22l0.069-0.091-96.947 126.311c-8.66 10.924-21.93 17.864-36.82 17.864-25.89 0-46.879-20.99-46.879-46.879 0-10.999 3.789-21.116 10.132-29.111l-0.075 0.096 75.042-96.716-74.11-89.725c-7.144-8.146-11.504-18.895-11.504-30.659 0-25.743 20.866-46.61 46.61-46.61 14.84 0 28.061 6.937 36.596 17.744l0.076 0.098z" />
<glyph unicode="&#xe941;" glyph-name="user" d="M1023.14-9.755c-26.176 194.564-157.46 353.035-333.964 417.887l-3.583 1.151c56.187 48.896 91.499 120.524 91.499 200.405 0 146.475-118.741 265.213-265.213 265.213s-265.213-118.741-265.213-265.213c0-79.877 35.312-151.508 91.178-200.13l0.321-0.271c-180.185-65.934-311.569-224.423-337.492-416.376l-0.294-2.663c-0.242-1.812-0.379-3.903-0.379-6.028 0-26.633 21.588-48.22 48.22-48.22 0.135 0 0.265 0.001 0.399 0.002h926.782c0.111-0.001 0.245-0.002 0.379-0.002 26.633 0 48.22 21.588 48.22 48.22 0 2.125-0.139 4.218-0.403 6.272l0.026-0.242zM344.432 606.509c0 93.21 75.56 168.774 168.774 168.774s168.774-75.56 168.774-168.774c0-93.21-75.56-168.774-168.774-168.774v0c-93.21 0-168.774 75.56-168.774 168.774v0zM107.186 32.439c49.406 180.4 211.883 310.783 404.812 310.783s355.405-130.383 404.124-307.839l0.688-2.941z" />
<glyph unicode="&#xe942;" glyph-name="users" d="M1023.252 116.9c-15.31 113.465-88.238 206.926-187.893 250.965l-2.042 0.807c26.543 29.838 42.763 69.372 42.763 112.696 0 93.825-76.062 169.887-169.887 169.887-28.997 0-56.298-7.264-80.181-20.072l0.907 0.444c-10.503 109.787-102.264 194.964-213.92 194.964-118.654 0-214.841-96.188-214.841-214.841 0-62.761 26.911-119.238 69.826-158.517l0.161-0.148c-142.916-54.286-246.8-180.958-267.574-334.035l-0.24-2.155c-0.21-1.584-0.331-3.416-0.331-5.278 0-23.313 18.899-42.207 42.207-42.207 0.116 0 0.231 0.001 0.349 0.002h938.907c0.1-0.001 0.216-0.002 0.331-0.002 23.313 0 42.207 18.899 42.207 42.207 0 1.862-0.121 3.693-0.353 5.489l0.021-0.211zM706.69 567.052c47.23-0.121 85.473-38.434 85.473-85.684 0-47.321-38.361-85.684-85.684-85.684-47.247 0-85.563 38.242-85.684 85.461v0.012c0 0.064 0 0.136 0 0.21 0 47.436 38.457 85.894 85.894 85.894 0 0 0 0 0 0v0zM282.709 609.257c0 72.032 58.392 130.423 130.423 130.423s130.423-58.392 130.423-130.423c0-72.032-58.392-130.423-130.423-130.423v0c-72.056 0.119-130.427 58.559-130.427 130.633 0 0.297 0.001 0.594 0.004 0.891v-0.045zM413.132 394.418c53.891-0.039 104.732-13.058 149.573-36.104l-1.844 0.86c-80.934-42.233-140.627-115.795-163.491-204.177l-0.489-2.22h-302.842c40.402 140.842 167.845 242.244 319.041 242.697h0.054zM485.729 153.832c33.109 92.216 119.787 156.984 221.593 156.984s188.484-64.768 221.078-155.346l0.515-1.639z" />
<glyph unicode="&#xe943;" glyph-name="warning-o" horiz-adv-x="1125" d="M1100.208 214.303l-376.88 652.842c-32.63 55.956-92.363 92.961-160.74 92.961s-128.11-37.005-160.265-92.081l-0.475-0.88-375.839-652.842c-15.667-26.63-24.921-58.662-24.921-92.855 0-102.421 83.028-185.449 185.449-185.449 0.074 0 0.149 0 0.223 0h754.268c0.063 0 0.137 0 0.211 0 102.421 0 185.449 83.028 185.449 185.449 0 34.193-9.254 66.225-25.394 93.727l0.473-0.873zM1010.215 80.874c-14.13-24.563-40.228-40.836-70.126-40.836-0.127 0-0.253 0-0.38 0.001h-754.26c-0.017 0-0.038 0-0.058 0-44.962 0-81.41 36.449-81.41 81.41 0 15.040 4.078 29.128 11.19 41.217l-0.208-0.382 377.14 652.842c14.312 24.616 40.562 40.901 70.616 40.901s56.304-16.286 70.408-40.513l0.209-0.388 376.88-652.842c6.932-11.658 11.029-25.703 11.029-40.705s-4.097-29.048-11.234-41.078l0.205 0.373zM562.849 510.553c-36.055 0-65.284-29.229-65.284-65.284v0-261.657c-0.166-1.745-0.26-3.772-0.26-5.822 0-36.055 29.229-65.284 65.284-65.284s65.284 29.229 65.284 65.284c0 2.050-0.094 4.077-0.279 6.078l0.019-0.257v261.657c0 0.001 0 0.001 0 0.002 0 35.873-28.933 64.988-64.736 65.282h-0.028zM636.456 616.933c0-40.652-32.955-73.607-73.607-73.607s-73.607 32.955-73.607 73.607c0 40.652 32.955 73.607 73.607 73.607s73.607-32.955 73.607-73.607z" />
<glyph unicode="&#xe944;" glyph-name="warning" horiz-adv-x="1125" d="M1100.208 214.303l-376.88 652.842c-32.63 55.956-92.363 92.961-160.74 92.961s-128.11-37.005-160.265-92.081l-0.475-0.88-375.839-652.842c-15.667-26.63-24.921-58.662-24.921-92.855 0-102.421 83.028-185.449 185.449-185.449 0.074 0 0.149 0 0.223 0h754.268c0.063 0 0.137 0 0.211 0 102.421 0 185.449 83.028 185.449 185.449 0 34.193-9.254 66.225-25.394 93.727l0.473-0.873zM628.133 183.612c0.166-1.745 0.26-3.772 0.26-5.822 0-36.055-29.229-65.284-65.284-65.284s-65.284 29.229-65.284 65.284c0 2.050 0.094 4.077 0.279 6.078l-0.019-0.257v261.657c-0.166 1.745-0.26 3.772-0.26 5.822 0 36.055 29.229 65.284 65.284 65.284s65.284-29.229 65.284-65.284c0-2.050-0.094-4.077-0.279-6.078l0.019 0.257zM562.849 543.846c-40.652 0-73.607 32.955-73.607 73.607s32.955 73.607 73.607 73.607c40.652 0 73.607-32.955 73.607-73.607v0c0-40.652-32.955-73.607-73.607-73.607v0z" />
<glyph unicode="&#xe945;" glyph-name="medal-o" horiz-adv-x="735" d="M367.304 960c-0.121 0-0.264 0-0.406 0-202.734 0-367.082-164.348-367.082-367.082 0-113.829 51.811-215.557 133.136-282.888l0.613-0.493v-329.016c0.026-24.569 19.949-44.476 44.522-44.476 9.782 0 18.827 3.154 26.173 8.502l-0.128-0.089 159.833 115.089 167.402-115.757c7.037-4.875 15.756-7.787 25.155-7.787 24.587 0 44.519 19.931 44.522 44.517v0 329.016c81.938 67.824 133.749 169.552 133.749 283.381 0 202.734-164.348 367.082-367.082 367.082-0.143 0-0.286 0-0.428 0h0.022zM512 65.336l-123.325 85.259c-7.152 5.112-16.074 8.175-25.711 8.175s-18.56-3.062-25.847-8.266l0.135 0.092-114.643-83.033v187.659c42.653-18.848 92.393-29.82 144.696-29.82s102.043 10.972 147.044 30.74l-2.349-0.92zM367.304 314.435c-153.679 0-278.261 124.582-278.261 278.261s124.582 278.261 278.261 278.261c153.679 0 278.261-124.582 278.261-278.261v0c-0.127-153.628-124.633-278.134-278.249-278.261h-0.012zM462.358 720.696l-159.165-159.165-37.398 42.296c-8.036 7.935-19.084 12.836-31.276 12.836-24.589 0-44.522-19.933-44.522-44.522 0-10.138 3.388-19.485 9.095-26.969l-0.079 0.109 68.118-78.136c7.865-9.053 19.235-14.881 31.975-15.358l0.081-0.002h1.558c12.273 0.053 23.365 5.064 31.386 13.132l193.004 193.004c8.061 8.061 13.047 19.198 13.047 31.499 0 24.602-19.944 44.546-44.546 44.546-12.301 0-23.438-4.986-31.499-13.047v0z" />
<glyph unicode="&#xe946;" glyph-name="trash" d="M518.61 115.17c28.27 0 51.19 22.919 51.19 51.19v0 255.954c0 28.27-22.919 51.19-51.19 51.19s-51.19-22.919-51.19-51.19v0-255.954c0-28.27 22.919-51.19 51.19-51.19v0zM377.841 115.17c28.27 0 51.19 22.919 51.19 51.19v0 255.954c0 28.27-22.919 51.19-51.19 51.19s-51.19-22.919-51.19-51.19v0-255.954c0-28.27 22.919-51.19 51.19-51.19v0zM659.389 115.17c28.27 0 51.19 22.919 51.19 51.19v0 255.954c0 28.27-22.919 51.19-51.19 51.19s-51.19-22.919-51.19-51.19v0-255.954c0-28.27 22.919-51.19 51.19-51.19v0zM780.965 806.237h-74.225c-18.408 88.344-95.628 153.762-188.126 153.762s-169.714-65.422-187.907-152.517l-0.22-1.246h-87.022c-0.003 0-0.007 0-0.010 0-77.746 0-140.772-63.025-140.772-140.772 0-49.194 25.237-92.498 63.465-117.666l0.531-0.329 5.375-560.281c0-28.27 22.919-51.19 51.19-51.19v0h584.341c28.27 0 51.19 22.919 51.19 51.19v0l5.375 565.4c34.843 25.877 57.173 66.897 57.173 113.129 0 77.547-62.818 140.427-140.346 140.516h-0.010zM518.61 857.427c35.402-0.128 65.95-20.77 80.393-50.654l0.231-0.537h-161.246c14.675 30.421 45.221 51.062 80.606 51.19h0.018zM756.65 38.385h-482.468l-4.607 486.307h491.682zM780.965 627.074h-537.502c-21.206 0-38.392 17.186-38.392 38.392s17.186 38.392 38.392 38.392v0h537.502c21.206 0 38.392-17.186 38.392-38.392s-17.186-38.392-38.392-38.392v0z" />
<glyph unicode="&#xe947;" glyph-name="pencil" horiz-adv-x="1005" d="M940.985 848.793l-46.688 46.688c-29.835 29.84-71.051 48.299-116.581 48.299s-86.75-18.457-116.581-48.299l-592.154-592.154c-1.456-1.52-2.838-3.158-4.121-4.87l-0.095-0.141-2.377-2.9c-0.93-1.453-1.892-3.181-2.761-4.963l-0.14-0.313-2.377-5.799c0-1.58 0-3.166-1.58-4.744-0.46-1.452-0.91-3.316-1.27-5.213l-0.049-0.329v-1.322l-37.982-260.334c-0.338-2.229-0.527-4.803-0.527-7.416 0-29.137 23.62-52.757 52.757-52.757 4.207 0 8.301 0.492 12.227 1.423l-0.356-0.073 242.403 55.92h3.432l6.598 3.166 4.744 2.377 4.222 2.634 4.744 3.955 2.634 2.11 591.887 592.154c29.84 29.835 48.299 71.051 48.299 116.581s-18.457 86.75-48.299 116.581v0zM819.652 820.836l46.688-46.688c10.725-10.74 17.357-25.562 17.357-41.938s-6.633-31.2-17.358-41.938l-13.975-13.975-131.883 130.565 13.976 13.976c10.802 11.123 25.891 18.024 42.599 18.024s31.802-6.907 42.586-18.007l0.017-0.017zM753.184 577.112l-130.299 130.83 24.263 24.796 131.883-130.565zM547.97 633.034l131.883-130.565-368.481-366.9-131.883 130.565zM143.615 154.031l63.302-63.302-74.909-17.408z" />
<glyph unicode="&#xe948;" glyph-name="truck" horiz-adv-x="1402" d="M1288.149 446.917l-148.325 290.808c-7.269 14.203-21.785 23.766-38.536 23.819h-223.472v23.385c-0.124 52.451-42.609 94.936-95.048 95.060h-577.943c-52.619 0-95.276-42.657-95.276-95.276v0-629.684c0-23.918 19.388-43.306 43.306-43.306v0h140.964c18.107-55.956 69.749-95.712 130.679-95.712s112.572 39.756 130.407 94.741l0.272 0.969h347.754c18.107-55.956 69.749-95.712 130.679-95.712s112.572 39.756 130.407 94.741l0.272 0.969h85.098c23.918 0 43.306 19.388 43.306 43.306v0 272.4c0 0.050 0 0.11 0 0.169 0 7.041-1.681 13.689-4.662 19.565l0.115-0.247zM1074.644 674.929l91.812-180.158h-288.641v180.158zM196.163 784.712c0 4.784 3.878 8.662 8.662 8.662v0h577.93c4.664 0 8.445-3.781 8.445-8.445v0-586.594h-238.188c-18.807 54.746-69.851 93.39-129.921 93.39s-111.114-38.641-129.631-92.423l-0.29-0.964h-97.009zM424.391 102.627c-27.985 0-50.67 22.685-50.67 50.67s22.685 50.67 50.67 50.67c27.985 0 50.67-22.685 50.67-50.67v0c0-27.985-22.685-50.67-50.67-50.67v0zM1033.718 102.627c-0.129-0.001-0.281-0.002-0.433-0.002-27.985 0-50.67 22.685-50.67 50.67s22.685 50.67 50.67 50.67c27.984 0 50.669-22.684 50.67-50.668v0c0-0.001 0-0.001 0-0.002 0-27.833-22.438-50.421-50.213-50.668h-0.024zM1163.639 198.12c-18.807 54.746-69.851 93.39-129.921 93.39s-111.114-38.641-129.631-92.423l-0.29-0.964h-25.985v210.038h328.267v-209.822z" />
<glyph unicode="&#xe949;" glyph-name="returns" d="M814.4 952h-604.8c-111.341 0-201.6-90.259-201.6-201.6v0-604.8c0-111.341 90.259-201.6 201.6-201.6v0h604.8c111.341 0 201.6 90.259 201.6 201.6v0 604.8c0 111.341-90.259 201.6-201.6 201.6v0zM915.2 145.6c0-55.67-45.13-100.8-100.8-100.8v0h-604.8c-55.67 0-100.8 45.13-100.8 100.8v0 604.8c0 55.67 45.13 100.8 100.8 100.8v0h604.8c55.67 0 100.8-45.13 100.8-100.8v0zM589.112 700h-242.172c-27.835 0-50.4-22.565-50.4-50.4s22.565-50.4 50.4-50.4v0h242.172c62.629 0 113.4-50.771 113.4-113.4s-50.771-113.4-113.4-113.4v0h-182.448l20.916 25.2c7.725 8.811 12.439 20.432 12.439 33.153 0 27.835-22.565 50.4-50.4 50.4-16.047 0-30.343-7.5-39.574-19.186l-0.081-0.106-85.932-104.076c-6.888-8.546-11.057-19.536-11.057-31.5s4.169-22.954 11.132-31.596l-0.076 0.096 85.932-110.88c9.21-9.741 22.222-15.804 36.651-15.804 27.835 0 50.4 22.565 50.4 50.4 0 10.396-3.147 20.057-8.541 28.081l0.114-0.181-20.16 25.2h180.684c118.299 0 214.2 95.901 214.2 214.2s-95.901 214.2-214.2 214.2v0z" />
<glyph unicode="&#xe94a;" glyph-name="shield" horiz-adv-x="890" d="M890.164 739.733c0.136 1.761 0.213 3.813 0.213 5.884 0 36.843-24.476 67.969-58.055 78.005l-0.576 0.148-337.582 122.823-16.999 6.704-8.38 3.352c-5.214 2.121-11.264 3.352-17.601 3.352-0.041 0-0.082 0-0.123 0h-11.486c-0.054 0-0.118 0-0.182 0-5.862 0-11.478-1.053-16.669-2.981l0.331 0.108-115.161-42.617-247.321-90.022c-35.34-9.395-60.955-41.102-60.955-78.793 0-2.774 0.139-5.515 0.41-8.218l-0.028 0.341q0-41.18 0-84.276c0-61.77 0-125.456 0-187.945-0.036-2.068-0.057-4.507-0.057-6.951 0-103.347 36.725-198.117 97.836-271.97l-0.575 0.715c54.315-68.334 118.34-126.035 190.58-171.97l3.111-1.849c26.815-17.238 54.348-32.561 80.924-47.884l31.125-17.478c4.689-2.677 10.215-5.257 15.954-7.398l0.805-0.263 3.352-1.197c5.435-2.378 11.765-3.783 18.417-3.831h7.679c0.044 0 0.095 0 0.147 0 6.78 0 13.231 1.409 19.076 3.951l-0.309-0.12c61.321 27.634 114.006 58.663 162.85 94.608l-2.438-1.713c66.99 46.42 124.147 101.065 171.77 163.385l1.331 1.815c43.348 55.108 73.344 122.665 84.010 196.476l0.266 2.242c2.492 21.875 3.914 47.229 3.914 72.915 0 3.742-0.030 7.477-0.090 11.205l0.007-0.562v5.746c0 63.446 0 126.653 0 190.1zM794.396 485.948v-4.788c0-0.017 0-0.037 0-0.057 0-25.294-1.566-50.222-4.606-74.693l0.296 2.924c-9.077-58.669-32.704-110.627-67.060-153.638l0.501 0.649c-42.889-55.772-92.924-103.295-149.35-142.215l-2.203-1.437c-36.956-27.18-78.86-52.601-122.969-74.215l-4.881-2.16-25.618 13.886c-26.576 14.844-51.475 28.73-75.657 44.293-66.111 41.874-122.296 92.421-168.942 150.913l-1.046 1.359c-47.981 57.574-77.107 132.326-77.107 213.881 0 1.066 0.005 2.132 0.015 3.196l-0.001-0.163c1.197 63.686 0 128.090 0 190.339 0 27.294 0 54.588 0 81.642l244.927 89.064 103.908 38.307 16.52-6.464 333.273-120.907v-60.334c0.239-63.207 0.239-126.174 0-189.381zM620.577 619.784l-242.772-242.772-66.559 75.657c-8.643 8.534-20.525 13.805-33.638 13.805-26.446 0-47.884-21.438-47.884-47.884 0-10.904 3.644-20.956 9.782-29.006l-0.085 0.117 99.599-114.203c8.458-9.736 20.688-16.005 34.389-16.517l0.087-0.003h1.676c13.2 0.057 25.129 5.447 33.756 14.124l0.002 0.002 279.403 279.882c8.67 8.67 14.033 20.648 14.033 33.878 0 26.46-21.45 47.911-47.911 47.911-13.23 0-25.208-5.363-33.878-14.033v0z" />
<glyph unicode="&#xe94b;" glyph-name="wallet" d="M512 960c-282.77 0-512-229.23-512-512s229.23-512 512-512c282.77 0 512 229.23 512 512v0c-0.271 282.661-229.339 511.729-511.974 512h-0.026zM512 31.256c-230.161 0-416.744 186.583-416.744 416.744s186.583 416.744 416.744 416.744c230.161 0 416.744-186.583 416.744-416.744v0c-0.271-230.053-186.692-416.474-416.719-416.744h-0.025zM534.147 498.962c-38.579 14.288-64.536 26.433-64.536 50.962 0 20.242 15.003 35.959 45.485 35.959 25.565-0.091 49.524-6.881 70.239-18.706l-0.702 0.369c4.712-2.766 10.379-4.4 16.427-4.4 11.855 0 22.243 6.277 28.023 15.688l0.082 0.143 16.432 26.195c3.192 4.954 5.088 11.003 5.088 17.496 0 11.509-5.96 21.627-14.962 27.435l-0.128 0.078c-17.838 10.553-38.525 18.853-60.486 23.782l-1.43 0.27c-13.827 3.8-23.816 16.258-23.816 31.050 0 0.135 0.001 0.27 0.002 0.405v-0.021 3.572c0 18.018-14.607 32.625-32.625 32.625h-5.715c-18.018 0-32.625-14.607-32.625-32.625v0-6.192c0.001-0.101 0.002-0.22 0.002-0.339 0-14.136-9.191-26.125-21.923-30.317l-0.226-0.064c-57.558-15.54-99.263-67.159-99.542-128.563v-0.032c0-95.256 77.872-120.737 136.216-142.884 38.102-14.288 64.536-27.148 64.536-54.296 0-22.385-19.766-39.293-52.153-39.293-31.418 0.201-60.515 9.966-84.573 26.527l0.509-0.331c-5.226 3.565-11.681 5.692-18.632 5.692-12.362 0-23.153-6.729-28.91-16.723l-0.086-0.162-16.432-26.433c-3.144-4.949-5.011-10.978-5.011-17.442 0-10.906 5.312-20.571 13.491-26.549l0.093-0.065c24.483-16.67 53.602-28.504 85.014-33.424l1.193-0.154c14.78-3.095 25.722-16.020 25.722-31.5 0-0.144-0.001-0.289-0.003-0.433v0.022c0-18.018 14.607-32.625 32.625-32.625v0h5.715c18.018 0 32.625 14.607 32.625 32.625v0 5.001c0.068 14.207 9.341 26.231 22.158 30.418l0.227 0.064c57.135 16.296 98.264 68.037 98.264 129.383 0 2.236-0.055 4.459-0.163 6.668l0.012-0.311c0 91.922-77.157 120.26-135.501 141.455z" />
<glyph unicode="&#xe94c;" glyph-name="offer-tag" horiz-adv-x="984" d="M321.381 802.516c-4.232 0.422-9.147 0.663-14.119 0.663-83.171 0-150.595-67.424-150.595-150.595s67.424-150.595 150.595-150.595c83.171 0 150.595 67.424 150.595 150.595 0 36.604-13.060 70.158-34.773 96.257l0.198-0.245c-24.81 29.983-60.695 50.042-101.303 53.874l-0.598 0.046zM342.521 609.878c-9.485-7.769-21.739-12.478-35.092-12.478-30.697 0-55.582 24.885-55.582 55.582 0 1.549 0.063 3.084 0.188 4.601l-0.013-0.199c2.866 28.185 26.421 50.009 55.096 50.119h5.474c28.319-2.807 50.255-26.505 50.255-55.327 0-17.161-7.777-32.506-20-42.702l-0.089-0.072zM946.802 451.682l-356.298 431.595c-27.529 32.86-67.49 54.518-112.553 57.691l-0.512 0.029-272.449 19.003c-3.263 0.236-7.069 0.37-10.907 0.37-81.994 0-149.656-61.367-159.561-140.677l-0.080-0.787-34.442-271.261c-0.732-5.777-1.15-12.462-1.15-19.244 0-39.092 13.887-74.941 36.998-102.881l-0.218 0.271 356.298-431.358c26.402-32.029 64.625-53.49 107.902-57.67l0.65-0.051q7.839 0 15.44 0c0.075 0 0.164 0 0.253 0 38.864 0 74.479 13.91 102.138 37.023l-0.252-0.205 308.316 251.784c35.776 29.667 58.392 74.125 58.392 123.865 0 38.98-13.89 74.716-36.99 102.528l0.213-0.263zM402.379 132.439l-292.402 353.923c-9.575 11.382-15.392 26.2-15.392 42.378 0 2.644 0.155 5.252 0.458 7.814l-0.030-0.311 33.73 271.024c4.048 32.675 31.641 57.718 65.083 57.72h4.513l272.687-18.527c18.689-1.324 35.066-10.239 46.232-23.647l0.086-0.107 292.402-353.923zM864.854 298.711l-305.941-252.734c-11.269-9.318-25.866-14.97-41.784-14.97-20.305 0-38.462 9.198-50.531 23.654l-0.085 0.105-3.563 4.276 407.13 336.345 3.563-4.276c9.376-11.258 15.067-25.872 15.067-41.815 0-20.315-9.24-38.472-23.747-50.497l-0.109-0.088z" />
<glyph unicode="&#xe94d;" glyph-name="return-arrow" horiz-adv-x="887" d="M480.142 820.964l53.248 64.398c6.488 7.818 10.426 17.956 10.426 29.013 0 25.175-20.408 45.583-45.583 45.583-14.117 0-26.736-6.418-35.097-16.494l-0.061-0.075-127.204-154.055c-6.22-7.717-9.984-17.641-9.984-28.444s3.764-20.727 10.052-28.532l-0.068 0.088 127.204-164.068c8.41-10.201 21.048-16.655 35.193-16.655 25.135 0 45.511 20.376 45.511 45.511 0 10.117-3.301 19.462-8.884 27.019l0.088-0.124-84.423 108.316h2.276c190.615-5.206 343.154-160.969 343.154-352.36 0-194.671-157.812-352.484-352.484-352.484-194.548 0-352.283 157.612-352.483 352.113v2.522c0 2.048 0 4.324 0 6.599 0.009 0.339 0.014 0.738 0.014 1.138 0 25.143-20.382 45.525-45.525 45.525-24.743 0-44.875-19.739-45.51-44.329l-0.001-0.059v-2.503c0-2.958 0-5.916 0-8.875-0.001-0.299-0.001-0.653-0.001-1.007 0-245.067 198.666-443.733 443.733-443.733s443.733 198.666 443.733 443.733c0 232.251-178.431 422.828-405.688 442.125l-1.635 0.112z" />
<glyph unicode="&#xe94e;" glyph-name="medal" horiz-adv-x="678" d="M97.493 272.853v-294.187c0.025-23.545 19.118-42.623 42.667-42.623 9.374 0 18.042 3.023 25.082 8.147l-0.122-0.085 170.667 122.667 177.92-123.093c6.654-4.496 14.855-7.176 23.683-7.176 23.387 0 42.379 18.817 42.663 42.136v294.214c-67.301-47.39-150.98-75.74-241.28-75.74s-173.98 28.35-242.622 76.635l1.342-0.895zM338.773 282.453c187.099 0 338.773 151.674 338.773 338.773s-151.674 338.773-338.773 338.773c-187.099 0-338.773-151.674-338.773-338.773v0c0-187.099 151.674-338.773 338.773-338.773v0zM168.107 635.307c7.457 6.532 17.288 10.517 28.050 10.517 12.78 0 24.249-5.619 32.068-14.522l0.041-0.048 42.667-48.427 170.667 170.667c7.725 7.725 18.398 12.504 30.187 12.504 23.577 0 42.69-19.113 42.69-42.69 0-11.789-4.778-22.461-12.504-30.187v0l-203.307-202.453c-7.689-7.733-18.319-12.535-30.070-12.587h-1.503c-12.286 0.459-23.183 6.045-30.676 14.668l-0.044 0.052-71.467 83.2c-6.28 7.383-10.101 17.029-10.101 27.566 0 12.585 5.449 23.897 14.116 31.707l0.038 0.034z" />
<glyph unicode="&#xe94f;" glyph-name="list" d="M367.391 743.617h591.228c31.097 0 56.308 25.211 56.308 56.308s-25.211 56.308-56.308 56.308v0h-591.228c-31.097 0-56.308-25.211-56.308-56.308s25.211-56.308 56.308-56.308v0zM958.623 504.308h-591.228c-31.097 0-56.308-25.211-56.308-56.308s25.211-56.308 56.308-56.308v0h591.228c31.097 0 56.308 25.211 56.308 56.308s-25.211 56.308-56.308 56.308v0zM958.623 152.383h-591.228c-31.097 0-56.308-25.211-56.308-56.308s25.211-56.308 56.308-56.308v0h591.228c31.097 0 56.308 25.211 56.308 56.308s-25.211 56.308-56.308 56.308v0zM170.315 856.23h-84.46c-31.097 0-56.308-25.211-56.308-56.308s25.211-56.308 56.308-56.308v0h84.46c31.097 0 56.308 25.211 56.308 56.308s-25.211 56.308-56.308 56.308v0zM170.315 504.308h-84.46c-31.097 0-56.308-25.211-56.308-56.308s25.211-56.308 56.308-56.308v0h84.46c31.097 0 56.308 25.211 56.308 56.308s-25.211 56.308-56.308 56.308v0zM170.315 152.383h-84.46c-31.097 0-56.308-25.211-56.308-56.308s25.211-56.308 56.308-56.308v0h84.46c31.097 0 56.308 25.211 56.308 56.308s-25.211 56.308-56.308 56.308v0z" />
<glyph unicode="&#xe950;" glyph-name="envelope" d="M1030.127 735.657c-26.423 57.242-83.298 96.269-149.297 96.341h-684.908c-68.725-0.203-127.507-42.55-151.88-102.546l-0.395-1.099 487.648-313.684zM555.949 321.979c-6.97-4.533-15.498-7.23-24.655-7.23s-17.685 2.695-24.834 7.338l0.176-0.108-474.635 304.552v-398.381c0.129-90.605 73.542-164.018 164.135-164.147h684.912c90.605 0.129 164.018 73.542 164.147 164.135v408.668z" />
<glyph unicode="&#xe951;" glyph-name="non-returnable" horiz-adv-x="1084" d="M313.224 694.965l108.424-108.424c18.071-18.071 18.071-48.188 0-72.282-18.071-18.071-48.188-18.071-72.282 0l-108.424 108.424-108.424-108.424c-12.047-12.047-30.118-18.071-54.212-18.071-18.071 6.024-36.141 18.071-36.141 36.141-6.024 18.071 0 36.141 18.071 48.188l108.424 108.424-108.424 108.424c-18.071 18.071-18.071 54.212 0 72.282s54.212 18.071 72.282 0l108.424-108.424 108.424 108.424c18.071 18.071 54.212 18.071 72.282 0s18.071-54.212 0-72.282l-108.424-102.4zM638.494 755.2h180.706c132.518 0 240.941-108.424 240.941-240.941v-331.294c0-132.518-108.424-240.941-240.941-240.941h-716.8c-30.118 0-48.188 24.094-48.188 48.188s24.094 48.188 48.188 48.188h716.8c78.306 0 144.565 66.259 144.565 138.541v331.294c0 78.306-66.259 138.541-144.565 138.541h-180.706l120.471-120.471c18.071-18.071 18.071-54.212 0-72.282s-54.212-18.071-72.282 0l-204.8 204.8c-18.071 18.071-18.071 48.188 0 72.282l204.8 204.8c18.071 18.071 54.212 18.071 72.282 0s24.094-54.212 0-72.282l-120.471-108.424z" />
<glyph unicode="&#xe952;" glyph-name="gift" d="M63.996 417.312v-375.466c0-34.543 28.736-62.577 64-62.577h319.999v438.043h-384.001zM959.995 667.623h-202.495c14.529 9.7 27.008 19.336 35.712 27.973 51.648 50.751 51.648 133.353 0 184.104-50.175 49.436-137.6 49.313-187.711 0-27.776-27.221-101.376-138.046-91.2-212.076h-4.608c10.111 74.029-63.488 184.855-91.2 212.076-50.175 49.313-137.6 49.313-187.711 0-51.585-50.751-51.585-133.353-0.063-184.104 8.768-8.634 21.248-18.272 35.776-27.973h-202.495c-35.263 0-64-28.097-64-62.577v-93.866c0-17.271 14.336-31.289 32-31.289h415.999v125.155h128.001v-125.155h415.999c17.664 0 32 14.018 32 31.289v93.866c0 34.48-28.671 62.577-64 62.577zM444.219 669.688c0 0-2.687-2.065-11.84-2.065-44.223 0-128.64 44.93-156.223 72.090-26.816 26.408-26.816 69.462 0 95.869 12.992 12.764 30.208 19.774 48.512 19.774 18.24 0 35.456-7.010 48.447-19.774 43.136-42.429 86.015-150.813 71.104-165.895zM591.547 667.623c-9.088 0-11.776 2.003-11.776 2.065-14.912 15.082 27.967 123.466 71.104 165.895 25.792 25.47 70.912 25.594 96.959 0 26.88-26.408 26.88-69.462 0-95.869-27.584-27.159-112-72.090-156.288-72.090zM575.995 417.312v-438.043h319.999c35.329 0 64 28.035 64 62.577v375.466h-384.001z" />
<glyph unicode="&#xe953;" glyph-name="timer-clock" horiz-adv-x="838" d="M72.934 910.051c0 27.585 22.362 49.947 49.948 49.947h437.225c27.585 0 49.947-22.362 49.947-49.947v-139.912c0-69.689-48.066-123.133-87.599-158.865-20.279-18.328-41.859-35.029-60.127-49.166-0.599-0.464-1.193-0.924-1.785-1.381-19.788-15.317-33.996-26.487-43.185-35.709l-35.255-35.382-40.61 40.464-40.609-40.464-35.255 35.382c-9.189 9.222-23.398 20.393-43.185 35.709-0.591 0.457-1.186 0.919-1.785 1.381-18.268 14.137-39.848 30.838-60.127 49.166-39.534 35.733-87.6 89.176-87.6 158.865v139.912zM341.495 590.406l5.101 5.119c14.484 14.537 34.109 29.727 51.984 43.562l1.497 1.158c19.015 14.719 37.986 29.403 55.396 45.139 37.584 33.97 54.688 61.481 54.688 84.755v89.965h-337.33v-89.965c0-23.274 17.104-50.785 54.688-84.755 17.409-15.736 36.381-30.42 55.396-45.139l1.497-1.158c17.875-13.835 37.499-29.025 51.984-43.562l5.1-5.119zM260.276 160.542h-137.393c-27.586 0-49.948 22.362-49.948 49.947v139.912c0 69.689 48.066 123.132 87.6 158.864 20.279 18.33 41.859 35.030 60.127 49.167 0.599 0.464 1.193 0.923 1.785 1.381 19.787 15.317 33.996 26.487 43.185 35.709l35.255 35.382 40.609-40.463 40.61 40.463 35.255-35.382c6.354-6.376 15.641-14.155 28.299-24.12l39.245-30.895-61.792-78.49-39.246 30.897c-12.922 10.173-26.332 21.123-37.269 32.101l-5.101 5.12-5.1-5.12c-14.484-14.536-34.11-29.727-51.985-43.561l-1.495-1.158c-19.016-14.72-37.989-29.404-55.397-45.139-37.584-33.97-54.688-61.481-54.688-84.755v-89.965h87.444v-99.896zM647.535 860.104h-612.116v99.896h612.116v-99.896zM210.309 160.542h-174.89v99.896h174.89v-99.896zM297.754 204.411c0 147.986 120.428 268.414 268.414 268.414s268.413-120.428 268.413-268.414c0-147.985-120.428-268.411-268.413-268.411s-268.414 120.426-268.414 268.411zM655.656 85.107c7.635 0 15.27 2.923 21.116 8.709 11.631 11.69 11.631 30.539 0 42.17l-80.763 80.762v106.948c0 16.462-13.361 29.823-29.823 29.823s-29.823-13.361-29.823-29.823v-119.295c0-7.932 3.161-15.508 8.709-21.115l89.471-89.471c5.846-5.786 13.48-8.709 21.115-8.709z" />
<glyph unicode="&#xe954;" glyph-name="flame" horiz-adv-x="838" d="M771.269 404.459c-0.706 3.765-0.915 8.789-0.355 15.414 0.009 0.111 0.019 0.221 0.029 0.332 1.542 10.902 2.637 22.85 2.965 35.692 0.322 12.66-0.099 26.187-1.571 40.436-0.347 3.356-0.75 6.751-1.218 10.186-1.431 10.529-3.446 21.412-6.16 32.6-5.822 23.997-14.859 49.387-28.242 75.623-3.268 6.41-6.799 12.872-10.604 19.376 0.001-0.001 0 0.001 0 0-7.613 13.014-16.332 26.199-26.287 39.491l-31.203 41.659-20.445-47.865c-9.197-21.534-20.613-38.882-33.221-51.302-19.719-19.423-42.352-26.794-63.985-19.264-27.302 9.501-49.493 40.746-60.878 85.733-8.512 33.624-14.165 87.721-0.161 166.286 0.186 1.048 0.377 2.105 0.571 3.163 0-0.001 0 0.001 0 0 3.408 18.576 7.908 38.5 13.718 59.824l13.116 48.156-48.691-10.968c-17.020-3.835-33.483-8.529-49.339-14.060 0.006 0.002-0.007-0.002 0 0-5.586-1.948-11.098-4.002-16.536-6.158-128.105-50.796-215.368-159.16-254.186-317.078-4.953-20.152-8.857-40.027-11.913-59.277-1.761-11.095-3.241-21.983-4.476-32.597-0.153-1.31-0.303-2.616-0.448-3.917-0.037-0.331-0.073-0.661-0.11-0.993-2.956-26.79-4.374-51.733-4.886-73.731-0.029-1.208-0.053-2.407-0.077-3.596-0.050-1.267-0.116-2.46-0.2-3.581-1.709-22.901-10.366-16.184-14.675-9.589-0.441 0.393-0.879 0.785-1.313 1.177-4.854 4.367-9.291 8.578-13.31 12.56-0.202 0.2-0.404 0.4-0.604 0.6-0.751 0.748-1.489 1.489-2.211 2.219 0.001-0.001-0.001 0 0 0-17.378 17.586-26.152 30.053-26.49 30.54l-36.966 54.308-16.838-63.589c-2.817-10.64-5.212-21.394-7.18-32.229-0.061-0.333-0.121-0.668-0.18-1.001-2.281-12.739-3.973-25.592-5.071-38.513-1.008-11.861-1.513-23.78-1.513-35.719 0-229.24 185.113-416.024 413.707-418.809h10.337c212.308 2.581 387.111 163.888 410.94 370.514 1.77 15.346 2.706 30.94 2.764 46.739 0.002 0.518 0.003 1.036 0.003 1.554 0.002 7.669-0.227 15.643-0.678 23.694l-4.524 80.693-49.261-64.071c-3.794-1.916-10.086-1.641-12.145 9.338zM663.26 523.251c10.16-35.817 9.447-66.405 6.292-88.697l-0.381-2.694-0.238-2.712c-1.56-17.793-3.681-61.388 26.885-97.966 10.907-13.052 22.965-22.223 35.377-28.393-24.669-148.328-152.995-262.229-307.69-264.392h-9.008c-159.501 2.232-290.972 123.25-309.687 278.317 12.097-1.737 25.829-1.515 40.845 2.284 51.18 12.948 70.032 54.922 75.3 69.641 6.233 17.412 7.622 34.090 8.044 45.025l0.039 0.999 0.020 1c0.812 42.283 5.355 96.253 18.967 151.633 24.605 100.096 69.943 170.231 132.663 214.19-4.591-59.746 0.848-107.359 10.131-144.038 14.564-57.542 50.6-130.906 126.488-157.316zM517.311 500.129c55.081-19.169 107.712-4.264 145.949 23.122z" />
<glyph unicode="&#xe955;" glyph-name="claims" horiz-adv-x="945" d="M309.601 960c-0.192 0.001-0.42 0.001-0.647 0.001-72.608 0-136.977-35.275-176.904-89.622l-0.428-0.61-131.622-180.462v-579.466c0-96.924 78.572-175.496 175.496-175.496v0h638.241c72.693 0 131.622 58.929 131.622 131.622v0 718.538c0 96.924-78.572 175.496-175.496 175.496v0zM369.203 23.748v158.112l-38.079 24.006-1.293 0.686c-29.724 17.113-55.837 39.794-77.349 67.194l0.341-0.539c-15.991 23.835-25.319 52.514-25.319 83.372 0 2.311 0.052 4.61 0.144 6.571l0.026-0.519c-0.239 3.798-0.36 7.627-0.36 11.485 0 54.81 24.435 103.913 63.247 137.212l-0.158-0.137c8.151 7.203 17.105 13.517 27.476 19.176v-248.343h221.853v237.581l0.75-0.459c51.983-33.929 86.813-91.947 88.653-158.48l-0.007 0.247c0.057-1.696 0.086-3.398 0.086-5.108 0-33.759-11.227-64.896-29.88-89.509l-0.189-0.221c-19.286-22.103-43.706-39.61-72.658-51.103l-47.185-25.662v-165.562h-15.728zM813.736 23.748h-255.793v115.893c88.575 31.643 150.821 114.821 150.821 212.537 0 2.985-0.058 5.957-0.173 8.913l0.013-0.425c-2.255 110.556-68.869 205.019-163.807 247.639l-1.755 0.704c-19.481 9.53-42.093 16.508-65.897 19.739l-1.155 0.128h-14.901v-268.21h-64.569v268.21h-14.901c-23.529-2.352-45.129-7.618-65.437-15.478l1.696 0.577c-97.73-36.61-166.037-129.229-166.037-237.801 0-5.456 0.173-10.872 0.512-16.243l-0.037 0.734c-0.026-1.328-0.041-2.895-0.041-4.465 0-94.118 53.607-175.715 131.953-215.924l1.365-0.637v-115.893h-110.099c-48.462 0-87.748 39.286-87.748 87.748v548.838l115.065 158.112c24.392 32.793 63.030 53.808 106.576 53.808 0.075 0 0.149 0 0.224 0h460.25c48.274-0.463 87.284-39.474 87.747-87.704v-717.755c-0.465-23.872-19.926-43.046-43.866-43.046-0.003 0-0.005 0-0.008 0v0zM730.956 844.935h-68.708v-36.424c-5.962-1.464-11.208-3.742-15.944-6.75l0.216 0.128-24.834 24.834-42.218-43.874 24.006-24.834-7.45-17.384h-34.768v-62.086h35.596l7.45-18.212-24.834-24.006 44.702-44.702 24.834 24.834 13.245-6.622v-35.596h66.225v35.596l16.556 6.622 25.662-24.834 43.874 44.702-24.834 24.834c3.286 4.986 5.853 10.79 7.372 17.004l0.078 0.38h36.424v62.086h-37.251c-2.011 6.643-4.543 12.403-7.663 17.781l0.212-0.397 24.834 24.834-43.874 43.874-24.834-24.834-16.556 6.622zM735.095 711.657c0.006-0.246 0.009-0.537 0.009-0.828 0-21.031-17.049-38.079-38.079-38.079-0.003 0-0.006 0-0.009 0v0c-21.488 0-38.907 17.419-38.907 38.907s17.419 38.907 38.907 38.907v0c0.003 0 0.006 0 0.009 0 21.031 0 38.079-17.049 38.079-38.079 0-0.291-0.003-0.581-0.010-0.871l0.001 0.043z" />
<glyph unicode="&#xea93;" glyph-name="whatsapp" d="M873 811.2c-95.8 96-223.2 148.8-359 148.8-279.6 0-507.2-227.6-507.2-507.4 0-89.4 23.4-176.8 67.8-253.6l-72-263 269 70.6c74.2-40.4 157.6-61.8 242.4-61.8h0.2c0 0 0 0 0 0 279.6 0 507.4 227.6 507.4 507.4 0 135.6-52.8 263-148.6 359zM514.2 30.4v0c-75.8 0-150 20.4-214.8 58.8l-15.4 9.2-159.6-41.8 42.6 155.6-10 16c-42.4 67-64.6 144.6-64.6 224.4 0 232.6 189.2 421.8 422 421.8 112.6 0 218.6-44 298.2-123.6 79.6-79.8 123.4-185.6 123.4-298.4-0.2-232.8-189.4-422-421.8-422zM745.4 346.4c-12.6 6.4-75 37-86.6 41.2s-20 6.4-28.6-6.4c-8.4-12.6-32.8-41.2-40.2-49.8-7.4-8.4-14.8-9.6-27.4-3.2s-53.6 19.8-102 63c-37.6 33.6-63.2 75.2-70.6 87.8s-0.8 19.6 5.6 25.8c5.8 5.6 12.6 14.8 19 22.2s8.4 12.6 12.6 21.2c4.2 8.4 2.2 15.8-1 22.2s-28.6 68.8-39 94.2c-10.2 24.8-20.8 21.4-28.6 21.8-7.4 0.4-15.8 0.4-24.2 0.4s-22.2-3.2-33.8-15.8c-11.6-12.6-44.4-43.4-44.4-105.8s45.4-122.6 51.8-131.2c6.4-8.4 89.4-136.6 216.6-191.4 30.2-13 53.8-20.8 72.2-26.8 30.4-9.6 58-8.2 79.8-5 24.4 3.6 75 30.6 85.6 60.2s10.6 55 7.4 60.2c-3 5.6-11.4 8.8-24.2 15.2z" />
<glyph unicode="&#xeaca;" glyph-name="linkedin" d="M380.485 696.962h181.97v-93.274h2.598c25.315 45.407 87.29 93.274 179.648 93.274 192.082 0 227.605-119.573 227.605-275.085v-316.736h-189.683v280.788c0 66.973-1.367 153.118-98.662 153.118-98.789 0-113.866-72.937-113.866-148.254v-285.653h-189.61v591.821zM51.69 696.962h197.277v-591.821h-197.277v591.821zM248.967 861.361c0-54.471-44.159-98.639-98.639-98.639s-98.639 44.159-98.639 98.639c0 54.471 44.159 98.639 98.639 98.639s98.639-44.159 98.639-98.639z" />
<glyph unicode="&#xf099;" glyph-name="twitter" horiz-adv-x="951" d="M925.714 717.714c-25.143-36.571-56.571-69.143-92.571-95.429 0.571-8 0.571-16 0.571-24 0-244-185.714-525.143-525.143-525.143-104.571 0-201.714 30.286-283.429 82.857 14.857-1.714 29.143-2.286 44.571-2.286 86.286 0 165.714 29.143 229.143 78.857-81.143 1.714-149.143 54.857-172.571 128 11.429-1.714 22.857-2.857 34.857-2.857 16.571 0 33.143 2.286 48.571 6.286-84.571 17.143-148 91.429-148 181.143v2.286c24.571-13.714 53.143-22.286 83.429-23.429-49.714 33.143-82.286 89.714-82.286 153.714 0 34.286 9.143 65.714 25.143 93.143 90.857-112 227.429-185.143 380.571-193.143-2.857 13.714-4.571 28-4.571 42.286 0 101.714 82.286 184.571 184.571 184.571 53.143 0 101.143-22.286 134.857-58.286 41.714 8 81.714 23.429 117.143 44.571-13.714-42.857-42.857-78.857-81.143-101.714 37.143 4 73.143 14.286 106.286 28.571z" />
<glyph unicode="&#xf09a;" glyph-name="facebook" horiz-adv-x="602" d="M527.22 902.27v-138.167h-82.164c-64.371 0-76.409-30.879-76.409-75.361v-98.915h153.344l-20.411-154.913h-132.933v-397.224h-160.147v397.224h-133.454v154.913h133.454v114.091c0 132.406 81.121 204.629 199.399 204.629 56.524 0 105.192-4.186 119.326-6.282z" />
<glyph unicode="&#xf0d5;" glyph-name="google-plus" horiz-adv-x="1317" d="M802.507 431.303c0-211.991-142.169-362.258-356.185-362.258-204.909 0-370.857 165.949-370.857 370.857s165.949 370.857 370.857 370.857c100.177 0 183.657-36.427 248.417-97.141l-100.682-96.633c-27.323 26.308-75.387 57.173-147.735 57.173-126.485 0-229.699-104.732-229.699-234.253s103.214-234.253 229.699-234.253c146.724 0 201.87 105.743 210.474 159.877h-210.474v127.5h350.112c3.544-18.719 6.071-37.438 6.071-61.725zM1241.157 493.031v-106.248h-105.743v-105.743h-106.248v105.743h-105.743v106.248h105.743v105.743h106.248v-105.743h105.743z" />
</font>
</defs>
</svg>
